<svg viewBox="0 0 500 500" xmlns="http://www.w3.org/2000/svg" fill-rule="evenodd" clip-rule="evenodd"><g><path d="M482.702 251.465c0 128.744-104.367 233.112-233.112 233.112-128.744 0-233.112-104.368-233.112-233.112s104.368-233.112 233.112-233.112c128.745 0 233.112 104.368 233.112 233.112" fill="#f8100e"/><path d="M249.593 483.188c-127.977 0-231.723-103.745-231.723-231.722 0-127.979 103.746-231.724 231.723-231.724 127.972 0 231.718 103.745 231.718 231.724 0 127.977-103.746 231.722-231.718 231.722m-.581-475.68c-134.393 0-243.34 108.946-243.34 243.342 0 134.392 108.947 243.338 243.34 243.338 134.389 0 243.337-108.946 243.337-243.338 0-134.396-108.947-243.342-243.337-243.342" fill="#050000"/><g fill="#050000"><path d="M307.304 311.09v-9.875l18.007-.581 4.067 10.456h-22.074zm2.903 37.178v-11.036l15.685.58.581 11.036-16.266-.58zm-59.832-32.531v-9.294l23.816-2.324.581 11.618h-24.398zm20.913 33.692h-22.074v-8.133h22.074v8.133zm103.399-58.671c-4.066-4.647-32.531-24.978-36.015-26.14-3.485-1.162-20.913 9.293-23.816 11.036-2.905 1.744-9.875 2.905-9.875 2.905s1.744-16.847 4.647-19.751c2.903-2.905 1.161-15.104 1.161-15.104s-20.912-19.169-25.559-17.427c-4.648 1.742-10.455 5.808-9.875 12.199.58 6.391 4.067 25.56 2.324 29.626-1.744 4.066-4.066 10.456-4.066 10.456s-18.589 5.807-24.399 3.485c-5.809-2.322-11.036-11.619-12.78-10.456-1.742 1.164-13.941 6.391-13.941 11.038s-4.648 71.453-1.744 80.746c2.906 9.294 9.295 29.045 12.78 29.045 3.486 0 13.361-11.618 13.942-13.361.581-1.742 26.721-.58 26.721-.58s-1.744 30.207-2.324 37.759c-.58 7.55-3.485 44.148-.58 47.053 2.903 2.905 11.035 12.779 13.36 12.199 2.324-.58 25.56-18.588 26.721-26.14 1.161-7.553-1.741-24.4-3.485-40.665-1.744-16.265-4.647-32.529-1.162-33.111 3.485-.581 11.038-3.485 15.685.581s9.295 13.36 15.104 13.36c5.808 0 13.361-5.227 19.169-14.522 5.809-9.294 19.751-59.253 19.751-66.804 0-7.552 2.324-12.781-1.744-17.427M176.6 267.523s-15.685 8.714-29.045 8.714c-13.361 0-30.207-.581-30.207 1.742 0 2.324-1.742 25.559 11.618 30.788 13.361 5.228 29.626-.581 29.626-.581s-29.045 44.729-44.148 58.089c-15.104 13.361-24.979 21.494-24.979 21.494s-2.905 8.132-.581 8.132 34.855-4.065 65.642-38.919c0 0-12.78 59.833-12.199 63.899.581 4.066-1.742 26.722 20.913 32.531 22.655 5.808 27.301-28.465 27.301-28.465s5.23-48.215 4.067-62.738c-1.161-14.522-5.228-27.884-5.228-27.884s6.972 21.494 12.78 23.237c5.809 1.742 15.685-3.486 15.104-11.038-.581-7.55-16.846-39.5-16.846-39.5s16.846-16.847 15.685-23.818c-1.162-6.971-13.362-20.913-19.171-20.332-5.809.581-20.332 4.647-20.332 4.647M352.033 120.554c-.581 9.294-11.038 15.685-11.038 19.169 0 3.485 11.038 8.714 11.038 8.714s23.818 1.742 27.884.581c4.066-1.162 18.008-6.391 15.104-35.435-2.905-29.045-47.634-38.92-47.634-38.92-2.324-2.325-6.972-.581-6.972-.581-1.162 6.389 7.553 17.427 9.295 21.493 1.742 4.067 2.905 15.685 2.324 24.979m-77.841 60.414s-44.148 11.618-45.892 11.618c-1.742 0 0-9.294 0-9.294s41.245-9.875 44.149-10.456c2.905-.58 1.742 8.133 1.742 8.133m-42.986-47.634c.581-2.324 34.272-.581 34.272-.581l-1.742 8.714s-28.463 6.971-30.787 6.971c-2.324 0-1.742-15.104-1.742-15.104m164.395 104.562c-4.647-11.619-45.311-55.186-45.311-55.186-1.742 8.133 1.742 20.913 5.227 27.302 3.485 6.391 5.23 19.752 3.486 24.979-1.742 5.228-13.36-5.227-13.36-5.227-37.179-21.494-43.568-66.224-43.568-66.224 15.104 1.161 19.751-2.324 20.913-8.714 1.162-6.389-10.458-13.36-16.847-13.36-6.389 0-9.294-2.324-9.875-5.228-.581-2.905 2.325-2.905 12.78-3.486 10.456-.58 19.751-5.809 23.237-11.618 3.485-5.808-1.161-16.266-5.809-20.913-4.647-4.647-21.493-1.161-23.235-2.905-1.742-1.742 6.969-32.531 9.874-40.662 2.906-8.133-2.324-20.332-4.066-23.237-1.742-2.903-36.015-.581-36.015-.581s-12.78-4.066-13.361 2.905c-.581 6.971 10.456 24.979 10.456 24.979l-105.725 1.162c.581 8.713 17.427 20.913 22.655 26.14 5.228 5.228 33.693 8.133 38.92 8.133 5.228 0 32.531-4.066 34.854-5.228 2.322-1.161 8.714-.581 8.134 5.228-.58 5.809-9.877 8.132-18.01 9.294-8.133 1.162-104.561-2.324-104.561-2.324 0 28.465 48.214 33.112 48.214 33.112s1.162 64.48-1.161 65.061c-2.324.58-6.972 4.066-6.972 4.066l-2.324-44.148c-8.713-20.332-40.662-16.265-40.662-16.265 9.875 7.552 11.618 61.575 9.875 67.383-1.742 5.809-34.274-4.647-34.274-4.647-5.227 21.494 19.171 37.759 24.399 41.245 5.227 3.485 37.178-3.486 37.178-3.486 30.207 23.235 45.309 9.875 45.309 9.875 13.942-8.132 0-27.302 0-27.302l59.253-23.818c4.647 18.589 45.892 51.12 61.575 61.577 15.683 10.456 27.882 19.751 43.567 14.522 15.685-5.228 9.877-30.787 5.23-42.406"/></g></g></svg>