<svg viewBox="0 0 500 500" xmlns="http://www.w3.org/2000/svg" fill-rule="evenodd" clip-rule="evenodd"><g><path fill="none" d="M0 0h500v500h-500z"/><circle cx="185.156" cy="246.477" r="18.082" fill="#4d804d" stroke="#000" transform="translate(-18.72 3.523)"/><path d="M174.142 249.935l-12.019 9.527v-19.054l12.019 9.527z" fill="#e60101" stroke="#000" stroke-width="1.00116"/><circle cx="185.156" cy="246.477" r="18.082" fill="#4d804d" stroke="#000" transform="translate(36.989 -52.34)"/><path d="M229.852 194.071l-12.019 9.527v-19.054l12.019 9.527z" fill="#e60101" stroke="#000" stroke-width="1.00116"/><circle cx="185.156" cy="246.477" r="18.082" fill="#4d804d" stroke="#000" transform="translate(36.989 59.386)"/><path d="M229.852 305.797l-12.019 9.527v-19.054l12.019 9.527z" fill="#e60101" stroke="#000" stroke-width="1.00116"/><circle cx="185.156" cy="246.477" r="18.082" fill="#4d804d" stroke="#000" transform="translate(92.7 -111.413)"/><path d="M285.562 134.998l-12.019 9.527v-19.054l12.019 9.527z" fill="#e60101" stroke="#000" stroke-width="1.00116"/><circle cx="185.156" cy="246.477" r="18.082" fill="#4d804d" stroke="#000" transform="translate(92.7 118.46)"/><path d="M285.562 364.871l-12.019 9.527v-19.054l12.019 9.527z" fill="#e60101" stroke="#000" stroke-width="1.00116"/><circle cx="185.156" cy="246.477" r="18.082" fill="#4d804d" stroke="#000" transform="translate(148.41 -177.549)"/><path d="M341.272 68.861l-12.019 9.527v-19.054l12.019 9.527z" fill="#e60101" stroke="#000" stroke-width="1.00116"/><circle cx="185.156" cy="246.477" r="18.082" fill="#4d804d" stroke="#000" transform="translate(148.41 184.598)"/><path d="M341.272 431.009l-12.019 9.527v-19.054l12.019 9.527z" fill="#e60101" stroke="#000" stroke-width="1.00116"/></g></svg>