<svg viewBox="0 0 500 500" xmlns="http://www.w3.org/2000/svg" fill-rule="evenodd" clip-rule="evenodd"><g><path fill="none" d="M0 0h500v500h-500z"/><circle cx="185.156" cy="246.477" r="18.082" fill="#4d804d" stroke="#000" transform="translate(-101.956 -34.641)"/><path d="M90.906 211.768l-12.019 9.527v-19.054l12.019 9.527z" fill="#e60101" stroke="#000" stroke-width="1.00116"/><circle cx="185.156" cy="246.477" r="18.082" fill="#4d804d" stroke="#000" transform="translate(-28.662 -34.641)"/><path d="M164.2 211.768l-12.019 9.527v-19.054l12.019 9.527z" fill="#e60101" stroke="#000" stroke-width="1.00116"/><circle cx="185.156" cy="246.477" r="18.082" fill="#4d804d" stroke="#000" transform="translate(44.632 -34.641)"/><path d="M237.494 211.768l-12.019 9.527v-19.054l12.019 9.527z" fill="#e60101" stroke="#000" stroke-width="1.00116"/><circle cx="185.156" cy="246.477" r="18.082" fill="#4d804d" stroke="#000" transform="translate(117.926 -34.641)"/><path d="M310.789 211.768l-12.019 9.527v-19.054l12.019 9.527z" fill="#e60101" stroke="#000" stroke-width="1.00116"/><circle cx="185.156" cy="246.477" r="18.082" fill="#4d804d" stroke="#000" transform="translate(191.22 -34.641)"/><path d="M384.083 211.768l-12.019 9.527v-19.054l12.019 9.527z" fill="#e60101" stroke="#000" stroke-width="1.00116"/><circle cx="185.156" cy="246.477" r="18.082" fill="#4d804d" stroke="#000" transform="translate(-61.531 41.69)"/><path d="M131.331 288.1l-12.019 9.527v-19.054l12.019 9.527z" fill="#e60101" stroke="#000" stroke-width="1.00116"/><circle cx="185.156" cy="246.477" r="18.082" fill="#4d804d" stroke="#000" transform="translate(11.763 41.69)"/><path d="M204.626 288.1l-12.019 9.527v-19.054l12.019 9.527z" fill="#e60101" stroke="#000" stroke-width="1.00116"/><circle cx="185.156" cy="246.477" r="18.082" fill="#4d804d" stroke="#000" transform="translate(85.056 41.69)"/><path d="M277.92 288.1l-12.019 9.527v-19.054l12.019 9.527z" fill="#e60101" stroke="#000" stroke-width="1.00116"/><circle cx="185.156" cy="246.477" r="18.082" fill="#4d804d" stroke="#000" transform="translate(158.35 41.69)"/><path d="M351.213 288.1l-12.019 9.527v-19.054l12.019 9.527z" fill="#e60101" stroke="#000" stroke-width="1.00116"/><circle cx="185.156" cy="246.477" r="18.082" fill="#4d804d" stroke="#000" transform="translate(231.645 41.69)"/><path d="M424.507 288.1l-12.019 9.527v-19.054l12.019 9.527z" fill="#e60101" stroke="#000" stroke-width="1.00116"/></g></svg>