<svg viewBox="0 0 500 500" xmlns="http://www.w3.org/2000/svg" fill-rule="evenodd" clip-rule="evenodd"><g><path fill="none" d="M0 0h500v500h-500z"/><circle cx="185.156" cy="246.477" r="18.082" fill="#4d804d" stroke="#000" transform="translate(-126.64 3.524)"/><path d="M66.222 249.935l-12.019 9.527v-19.054l12.019 9.527z" fill="#e60101" stroke="#000" stroke-width="1.00116"/><circle cx="185.156" cy="246.477" r="18.082" fill="#4d804d" stroke="#000" transform="translate(-30.898 3.524)"/><path d="M161.965 249.935l-12.019 9.527v-19.054l12.019 9.527z" fill="#e60101" stroke="#000" stroke-width="1.00116"/><circle cx="185.156" cy="246.477" r="18.082" fill="#4d804d" stroke="#000" transform="translate(-30.898 -60.505)"/><path d="M161.965 185.906l-12.019 9.527v-19.054l12.019 9.527z" fill="#e60101" stroke="#000" stroke-width="1.00116"/><circle cx="185.156" cy="246.477" r="18.082" fill="#4d804d" stroke="#000" transform="translate(-30.898 -124.535)"/><path d="M161.965 121.876l-12.019 9.527v-19.054l12.019 9.527z" fill="#e60101" stroke="#000" stroke-width="1.00116"/><circle cx="185.156" cy="246.477" r="18.082" fill="#4d804d" stroke="#000" transform="translate(-30.898 -188.564)"/><path d="M161.965 57.847l-12.019 9.527v-19.054l12.019 9.527z" fill="#e60101" stroke="#000" stroke-width="1.00116"/><circle cx="185.156" cy="246.477" r="18.082" fill="#4d804d" stroke="#000" transform="translate(-30.898 195.612)"/><path d="M161.965 442.023l-12.019 9.527v-19.054l12.019 9.527z" fill="#e60101" stroke="#000" stroke-width="1.00116"/><circle cx="185.156" cy="246.477" r="18.082" fill="#4d804d" stroke="#000" transform="translate(-30.898 131.583)"/><path d="M161.965 377.994l-12.019 9.527v-19.054l12.019 9.527z" fill="#e60101" stroke="#000" stroke-width="1.00116"/><circle cx="185.156" cy="246.477" r="18.082" fill="#4d804d" stroke="#000" transform="translate(-30.898 67.553)"/><path d="M161.965 313.964l-12.019 9.527v-19.054l12.019 9.527z" fill="#e60101" stroke="#000" stroke-width="1.00116"/><circle cx="185.156" cy="246.477" r="18.082" fill="#4d804d" stroke="#000" transform="translate(64.845 3.523)"/><path d="M257.708 249.935l-12.019 9.527v-19.054l12.019 9.527z" fill="#e60101" stroke="#000" stroke-width="1.00116"/><circle cx="185.156" cy="246.477" r="18.082" fill="#4d804d" stroke="#000" transform="translate(64.845 -60.745)"/><path d="M257.708 185.666l-12.019 9.527v-19.054l12.019 9.527z" fill="#e60101" stroke="#000" stroke-width="1.00116"/><circle cx="185.156" cy="246.477" r="18.082" fill="#4d804d" stroke="#000" transform="translate(64.845 -125.015)"/><path d="M257.708 121.398l-12.019 9.527v-19.054l12.019 9.527z" fill="#e60101" stroke="#000" stroke-width="1.00116"/><circle cx="185.156" cy="246.477" r="18.082" fill="#4d804d" stroke="#000" transform="translate(64.845 132.061)"/><path d="M257.708 378.473l-12.019 9.527v-19.054l12.019 9.527z" fill="#e60101" stroke="#000" stroke-width="1.00116"/><circle cx="185.156" cy="246.477" r="18.082" fill="#4d804d" stroke="#000" transform="translate(64.845 67.792)"/><path d="M257.708 314.204l-12.019 9.527v-19.054l12.019 9.527z" fill="#e60101" stroke="#000" stroke-width="1.00116"/><circle cx="185.156" cy="246.477" r="18.082" fill="#4d804d" stroke="#000" transform="translate(160.588 2.839)"/><path d="M353.45 249.249l-12.019 9.527v-19.054l12.019 9.527z" fill="#e60101" stroke="#000" stroke-width="1.00116"/><circle cx="185.156" cy="246.477" r="18.082" fill="#4d804d" stroke="#000" transform="translate(160.588 -58.578)"/><path d="M353.45 187.832l-12.019 9.527v-19.054l12.019 9.527z" fill="#e60101" stroke="#000" stroke-width="1.00116"/><circle cx="185.156" cy="246.477" r="18.082" fill="#4d804d" stroke="#000" transform="translate(160.588 65.626)"/><path d="M353.45 312.036l-12.019 9.527v-19.054l12.019 9.527z" fill="#e60101" stroke="#000" stroke-width="1.00116"/><circle cx="185.156" cy="246.477" r="18.082" fill="#4d804d" stroke="#000" transform="translate(256.33 3.524)"/><path d="M449.193 249.935l-12.019 9.527v-19.054l12.019 9.527z" fill="#e60101" stroke="#000" stroke-width="1.00116"/></g></svg>