<svg viewBox="0 0 500 500" xmlns="http://www.w3.org/2000/svg" fill-rule="evenodd" clip-rule="evenodd"><g><path fill="none" d="M0 0h500v500h-500z"/><circle cx="185.156" cy="246.477" r="18.082" fill="#4d804d" stroke="#000" transform="translate(-125.501 2.353)"/><path d="M67.361 248.764l-12.019 9.527v-19.054l12.019 9.527z" fill="#e60101" stroke="#000" stroke-width="1.00116"/><circle cx="185.156" cy="246.477" r="18.082" fill="#4d804d" stroke="#000" transform="translate(-49.362 2.353)"/><path d="M143.5 248.764l-12.019 9.527v-19.054l12.019 9.527z" fill="#e60101" stroke="#000" stroke-width="1.00116"/><circle cx="185.156" cy="246.477" r="18.082" fill="#4d804d" stroke="#000" transform="translate(26.775 2.353)"/><path d="M219.637 248.764l-12.019 9.527v-19.054l12.019 9.527z" fill="#e60101" stroke="#000" stroke-width="1.00116"/><circle cx="185.156" cy="246.477" r="18.082" fill="#4d804d" stroke="#000" transform="translate(102.913 2.353)"/><path d="M295.776 248.764l-12.019 9.527v-19.054l12.019 9.527z" fill="#e60101" stroke="#000" stroke-width="1.00116"/><circle cx="185.156" cy="246.477" r="18.082" fill="#4d804d" stroke="#000" transform="translate(179.052 2.353)"/><path d="M371.915 248.764l-12.019 9.527v-19.054l12.019 9.527z" fill="#e60101" stroke="#000" stroke-width="1.00116"/><circle cx="185.156" cy="246.477" r="18.082" fill="#4d804d" stroke="#000" transform="translate(255.191 2.353)"/><path d="M448.054 248.764l-12.019 9.527v-19.054l12.019 9.527z" fill="#e60101" stroke="#000" stroke-width="1.00116"/><circle cx="185.156" cy="246.477" r="18.082" fill="#4d804d" stroke="#000" transform="translate(212.647 -64.237)"/><path d="M405.51 182.175l-12.019 9.527v-19.054l12.019 9.527z" fill="#e60101" stroke="#000" stroke-width="1.00116"/><circle cx="185.156" cy="246.477" r="18.082" fill="#4d804d" stroke="#000" transform="translate(212.647 68.651)"/><path d="M405.51 315.063l-12.019 9.527v-19.054l12.019 9.527z" fill="#e60101" stroke="#000" stroke-width="1.00116"/><circle cx="185.156" cy="246.477" r="18.082" fill="#4d804d" stroke="#000" transform="translate(164.081 125.636)"/><path d="M356.944 372.048l-12.019 9.527v-19.054l12.019 9.527z" fill="#e60101" stroke="#000" stroke-width="1.00116"/><circle cx="185.156" cy="246.477" r="18.082" fill="#4d804d" stroke="#000" transform="translate(164.081 -118.591)"/><path d="M356.944 127.821l-12.019 9.527v-19.054l12.019 9.527z" fill="#e60101" stroke="#000" stroke-width="1.00116"/></g></svg>