<svg viewBox="0 0 500 500" xmlns="http://www.w3.org/2000/svg" fill-rule="evenodd" clip-rule="evenodd"><g><path fill="none" d="M0 0h500v500h-500z"/><circle cx="185.156" cy="246.477" r="18.082" fill="#4d804d" stroke="#000" transform="translate(-135.97 96.421)"/><path d="M56.892 342.831l-12.019 9.527v-19.054l12.019 9.527z" fill="#e60101" stroke="#000" stroke-width="1.00116"/><circle cx="185.156" cy="246.477" r="18.082" fill="#4d804d" stroke="#000" transform="translate(-136.431 24.784)"/><path d="M56.431 271.194l-12.019 9.527v-19.054l12.019 9.527z" fill="#e60101" stroke="#000" stroke-width="1.00116"/><circle cx="185.156" cy="246.477" r="18.082" fill="#4d804d" stroke="#000" transform="translate(-55.551 37.76)"/><path d="M137.31 284.17l-12.019 9.527v-19.054l12.019 9.527z" fill="#e60101" stroke="#000" stroke-width="1.00116"/><circle cx="185.156" cy="246.477" r="18.082" fill="#4d804d" stroke="#000" transform="translate(-56.012 -33.877)"/><path d="M136.849 212.533l-12.019 9.527v-19.054l12.019 9.527z" fill="#e60101" stroke="#000" stroke-width="1.00116"/><circle cx="185.156" cy="246.477" r="18.082" fill="#4d804d" stroke="#000" transform="translate(24.867 -17.736)"/><path d="M217.729 228.674l-12.019 9.527v-19.054l12.019 9.527z" fill="#e60101" stroke="#000" stroke-width="1.00116"/><circle cx="185.156" cy="246.477" r="18.082" fill="#4d804d" stroke="#000" transform="translate(24.405 -89.372)"/><path d="M217.267 157.037l-12.019 9.527v-19.054l12.019 9.527z" fill="#e60101" stroke="#000" stroke-width="1.00116"/><circle cx="185.156" cy="246.477" r="18.082" fill="#4d804d" stroke="#000" transform="translate(105.285 -17.736)"/><path d="M298.147 228.674l-12.019 9.527v-19.054l12.019 9.527z" fill="#e60101" stroke="#000" stroke-width="1.00116"/><circle cx="185.156" cy="246.477" r="18.082" fill="#4d804d" stroke="#000" transform="translate(104.823 -89.372)"/><path d="M297.686 157.038l-12.019 9.527v-19.054l12.019 9.527z" fill="#e60101" stroke="#000" stroke-width="1.00116"/><circle cx="185.156" cy="246.477" r="18.082" fill="#4d804d" stroke="#000" transform="translate(185.703 37.76)"/><path d="M378.565 284.17l-12.019 9.527v-19.054l12.019 9.527z" fill="#e60101" stroke="#000" stroke-width="1.00116"/><circle cx="185.156" cy="246.477" r="18.082" fill="#4d804d" stroke="#000" transform="translate(185.242 -33.876)"/><path d="M378.104 212.533l-12.019 9.527v-19.054l12.019 9.527z" fill="#e60101" stroke="#000" stroke-width="1.00116"/><circle cx="185.156" cy="246.477" r="18.082" fill="#4d804d" stroke="#000" transform="translate(266.12 92.879)"/><path d="M458.983 339.289l-12.019 9.527v-19.054l12.019 9.527z" fill="#e60101" stroke="#000" stroke-width="1.00116"/><circle cx="185.156" cy="246.477" r="18.082" fill="#4d804d" stroke="#000" transform="translate(265.659 21.243)"/><path d="M458.522 267.652l-12.019 9.527v-19.054l12.019 9.527z" fill="#e60101" stroke="#000" stroke-width="1.00116"/></g></svg>