<svg xmlns="http://www.w3.org/2000/svg" width="1000" height="1000" viewBox="0 0 1000 1000"><path stroke="#000" stroke-width="5" stroke-linecap="round" stroke-linejoin="round" fill="none" d="M169.215 386.836l343.077-249.339"/><path d="M514.895 144.799l6.081-13.664-14.875 1.565z"/><path stroke="#000" stroke-width="5" stroke-linecap="round" stroke-linejoin="round" fill="none" d="M544.807 132.476l344.938 250.698"/><path d="M883.603 387.904l14.875 1.566-6.082-13.666z"/><path stroke="#000" stroke-width="5" stroke-linecap="round" stroke-linejoin="round" fill="none" d="M904.275 411.702l-131.791 405.444"/><path d="M766.088 812.766l3.107 14.63 11.117-10.006z"/><path stroke="#000" stroke-width="5" stroke-linecap="round" stroke-linejoin="round" fill="none" d="M749 840.5h-426"/><path d="M325 832.73l-12.953 7.479 12.953 7.479z"/><path stroke="#000" stroke-width="5" stroke-linecap="round" stroke-linejoin="round" fill="none" d="M294.291 825.68l-131.955-405.942"/><path d="M170.086 419.521l-11.116-10.007-3.109 14.63z"/><path stroke="#000" stroke-width="5" stroke-linecap="round" stroke-linejoin="round" fill="none" d="M171 397.5h6"/><path stroke="#000" stroke-width="5" stroke-linecap="round" stroke-linejoin="round" stroke-dasharray="12,12" fill="none" d="M189 397.5h684"/><path stroke="#000" stroke-width="5" stroke-linecap="round" stroke-linejoin="round" fill="none" d="M879 397.5h6"/><path d="M883 404.937l12.953-7.478-12.953-7.48z"/><path stroke="#000" stroke-width="5" stroke-linecap="round" stroke-linejoin="round" stroke-dasharray="12,12" fill="none" d="M896.001 407l-577.388 418.938"/><path d="M316.017 818.633l-6.092 13.659 14.876-1.553z"/><path stroke="#000" stroke-width="5" stroke-linecap="round" stroke-linejoin="round" stroke-dasharray="12,12" fill="none" d="M303.968 824.881l220.616-678.893"/><path d="M530.98 150.368l-3.108-14.63-11.116 10.007z"/><path stroke="#000" stroke-width="5" stroke-linecap="round" stroke-linejoin="round" stroke-dasharray="12,12" fill="none" d="M536.788 137.902l220.975 679.997"/><path d="M750.014 818.116l11.115 10.008 3.11-14.63z"/><path stroke="#000" stroke-width="5" stroke-linecap="round" stroke-linejoin="round" stroke-dasharray="12,12" fill="none" d="M752.366 831l-577.973-419.427"/><path d="M180.532 406.839l-14.875-1.555 6.09 13.661z"/><circle cx="532.5" cy="123.5" r="9.5"/><circle cx="908.5" cy="397.5" r="9.5"/><circle cx="764.5" cy="840.5" r="9.5"/><circle cx="299.5" cy="840.5" r="9.5"/><circle cx="155.5" cy="397.5" r="9.5"/><g stroke="#000" stroke-width="5" stroke-linecap="round" stroke-linejoin="round" fill="none"><path d="M644 930.5h6"/><path stroke-dasharray="12,12" d="M662 930.5h211"/><path d="M879 930.5h6"/></g><path stroke="#000" stroke-width="5" stroke-linecap="round" stroke-linejoin="round" stroke-miterlimit="10" fill="none" d="M179 930.5h241"/><text transform="translate(238 921)" font-family="'ArialMT'" font-size="18">hervorbringen</text><text transform="translate(728 921)" font-family="'ArialMT'" font-size="18">zerstören</text><text transform="translate(509 106)" font-family="'ArialMT'" font-size="18">Feuer</text><text transform="translate(926 400.503)" font-family="'ArialMT'" font-size="18">Erde</text><text transform="translate(741.366 871.503)" font-family="'ArialMT'" font-size="18">Metall</text><text transform="translate(267.366 871.503)" font-family="'ArialMT'" font-size="18">Wasser</text><text transform="translate(99.366 402.5)" font-family="'ArialMT'" font-size="18">Holz</text></svg>