<svg viewBox="0 0 883 472" xmlns="http://www.w3.org/2000/svg" fill-rule="evenodd" clip-rule="evenodd"><g><g><circle cx="158.25" cy="168.802" r="69.385" stroke="#000" stroke-width="5.21" fill="none" transform="matrix(.48 0 0 .48 294.04 16)"/><g><circle cx="93" cy="83" r="34" stroke="#000" stroke-width="5.62" fill="none" transform="matrix(.444 0 0 .444 295.642 16.769)"/><circle cx="93" cy="83" r="34" stroke="#000" stroke-width="5.62" fill="none" transform="matrix(.444 0 0 .444 330.777 7.37)"/><circle cx="93" cy="83" r="34" stroke="#000" stroke-width="5.62" fill="none" transform="matrix(.444 0 0 .444 364.765 21.131)"/><circle cx="93" cy="83" r="34" stroke="#000" stroke-width="5.62" fill="none" transform="matrix(.444 0 0 .444 381.297 54.813)"/><circle cx="93" cy="83" r="34" stroke="#000" stroke-width="5.62" fill="none" transform="matrix(.444 0 0 .444 372.701 89.143)"/><circle cx="93" cy="83" r="34" stroke="#000" stroke-width="5.62" fill="none" transform="matrix(.444 0 0 .444 345.035 110.684)"/><circle cx="93" cy="83" r="34" stroke="#000" stroke-width="5.62" fill="none" transform="matrix(.444 0 0 .444 310.375 110.517)"/><circle cx="93" cy="83" r="34" stroke="#000" stroke-width="5.62" fill="none" transform="matrix(.444 0 0 .444 282.026 87.02)"/><circle cx="93" cy="83" r="34" stroke="#000" stroke-width="5.62" fill="none" transform="matrix(.444 0 0 .444 276.525 49.624)"/></g><path d="M351.16 91.84s6.002-9.213 7.2-10.08c1.198-.867 4.447-5.197 5.28-5.76.833-.563 4.324-4.416 6.24-4.8 1.916-.384 5.186-.724 7.68-.48 2.494.244 5.022.103 6.24.96s2.599 2.275 2.4 3.36c-.199 1.085-.886 1.651-.96 2.4-.074.749-.001 5.095-.48 6.24-.479 1.145-.507.683-.96 2.88-.453 2.197.008 4.234-.96 5.28-.968 1.046-3.055 3.908-5.28 4.32-2.225.412-3.758.996-3.36 2.4.398 1.404 6.465 13.69 8.16 17.28.63 1.334-.035 4.056-.96 4.32-1.157.331-4.571.382-5.76-1.92s-6.549-13.447-6.72-13.92c-.171-.473-.391-.472-.96 0-.397.329-3.347 3.604-4.8 3.84-1.278.208-2.085.306-3.36-.48s-2.867-2.468-3.84-2.88c-.973-.412-5.273-4.59-7.2-6.72-1.097-1.213-2.786-1.56-3.84-1.44-.597.068-1.543-.378-1.44-.96.103-.582 5.571-.918 6.72-.48 1.149.438 2.651 1.065 4.8 1.44s2.31.336 3.36-.48c1.05-.816 4.177-4.596 4.32-5.28.196-.939.053-4.195-.96-4.32-.888-.109-1.872.941-2.4 1.92-.414.768-1.118 2.465-1.92 3.36-.884.987-1.826 2.227-3.84 1.44-2.014-.787-2.4-1.44-2.4-1.44zm13.169 5.473c-.646.308-1.775 1.439-2.129 2.207-.336.726-.946 2.046 0 2.4.946.354 1.355.412 1.92 0 1.91-1.393 1.786-1.684 1.92-1.92.289-.511.584-1.864 0-2.4-.584-.536-1.024-.614-1.711-.287zm8.911-7.393s-1.78-.112-1.44.96c.34 1.072.252 2.352.96 2.4.708.048 1.091.787 1.44 0s.709-2.035.48-2.88c-.193-.711-1.079-.492-1.358-.469-.487.04-.082-.011-.082-.011zm-5.76-9.6s2.849-2.722 4.32-3.36c1.471-.638 1.44 0 1.44 0s.241 2.443.48 3.36c.239.917.377 1.13.48 2.4.103 1.27.73 2.11 0 2.4-.544.216-3.212.443-3.84 0-.628-.443-1.318-.891-1.44-1.92-.122-1.029-.989-.917-1.44-1.44-.451-.523 0-1.44 0-1.44z"/></g><g font-family="'Arial-BoldMT', 'Arial', sans-serif" font-weight="700" font-size="10"><text x="324.649" y="180.741" fill="none" transform="translate(33 5) translate(-1 -11)">Kōga</text><text x="324.649" y="180.741" transform="translate(33 5) translate(-1 -11)">Kōga</text></g></g><g><g font-family="'Arial-BoldMT', 'Arial', sans-serif" font-weight="700" font-size="10"><text x="324.649" y="180.741" fill="none" transform="translate(33 -6) translate(168.656 -1.517)">Iga</text><text x="324.649" y="180.741" transform="translate(33 -6) translate(168.656 -1.517)">Iga</text></g><g><path d="M546.464 123.856l7.214-3.813 2.404 5.899s9.595-.684 13.107 0c3.358.654 4.548 1.08 5.652 2.529.876 1.15 1.188 3.087 0 3.979-1.188.892-2.285-.182-6.612-.526-1.559-.124-6.695.348-9.978 2.333-3.048 1.843-5.054 1.146-9.119 7.313-2.016 3.058-2.306 3.35-3.545 5.044-.766 1.047-3.325 1.268-4.292.097-.967-1.171-.783-2.554 0-4.661.593-1.596 6.676-9.107 8.532-11.349-.08-1.936-3.364-6.846-3.364-6.846zm-28.66-3.545l8.549 4.621-4.975 5.657s5.101 4.846 6.425 8.171c1.265 3.178 1.246 4.966.624 6.679-.493 1.359-1.458 1.665-2.851 1.148-1.393-.517-2.599-1.821-3.71-3.673-.805-1.34-3.444-5.253-8.021-7.755-3.125-1.708-3.89-3.725-11.276-3.809-3.662-.042-3.206.126-5.301 0-1.296-.078-1.905-1.252-1.443-2.699.462-1.446 1.446-2.927 3.549-3.719 2.794-1.052 3.456-1.625 14.896 1.651 1.51-1.186 3.631-6.022 3.535-6.273zm-15.181-24.327l1.353 8.047-7.1 1.194s-.837 9.759-2.296 13.616c-1.21 3.2-1.585 2.884-3.309 3.477-1.367.47-2.234-.08-2.685-1.495-.621-1.949-.111-2.864.631-4.893.536-1.468.401-10.152 0-13.692-.402-3.539-.731-5.172-5.308-10.969-2.27-2.874-2.179-1.607-3.397-3.316-.754-1.056-.158-3.075 1.257-3.625 1.415-.55 3.298.172 5.052 1.577 1.329 1.065 6.49 4.616 8.703 11.272 2.356-.408 7.101-1.194 7.101-1.194zm63.284 7.378l1.514-9.834 7.075 1.816s3.863-6.214 6.587-8.534c2.604-2.218 4.405-2.638 6.228-2.598 1.445.032 3.005 1.807 2.962 3.292-.043 1.485-.916 2.412-2.314 4.058-1.012 1.192-5.488 5.391-6.238 9.931-.58 3.514-.747 3.712 1.282 10.814.742 2.597.619 4.704.287 6.876-.196 1.283-1.081 2.751-2.599 2.777-1.518.027-3.413-.739-4.36-2.777-.474-1.021-1.368-6.07-2.743-10.118-.912-2.684-2.574-4.66-2.525-5.703-2.351-.432-5.155 0-5.155 0zm-54.109-37.746l-7.532 10.827c-.96-1.929-2.025-3.846-4.158-5.651-.46.003-2.606 1.938-4.215 3.127-2.189 1.618-4.126 2.673-6.336 3.18-3.335.763-3.691.242-5.277-.656-1.258-.712-1.88-2.195-1.139-3.482.741-1.288 2.141-2.159 4.245-2.648 2.242-.522 6.226-2.573 8.507-5.309 2.533-3.038 6.113-6.88 6.391-11.053.243-3.654-.62-3.758 0-6.343.302-1.262 2.558-1.994 3.908-1.298s2.054 1.994 3.005 4.032c1.803 3.863-1.412 10.687-3.005 13.147 1.866 1.495 5.606 2.128 5.606 2.128zm51.238 7.6l-4.984-6.941 5.701-4.397s-3.696-4.347-3.316-10.618c.124-2.043.876-4.83 1.762-5.881.768-.912 2.651-1.206 3.553-.426 2.023 1.749.785 4.533 1.212 6.787.575 3.043 1.776 4.899 2.534 6.457.514 1.056 1.27 1.502 2.016 2.41 2.95 3.592 7.712 3.462 10.268 3.915 1.298.23 2.177 1.809 2.708 2.821.531 1.013.469 2.928-.48 3.733-1.011.857-3.533 1.226-5.588.931-2.626-.376-6.737-1.453-9.204-3.671-3.262 1.617-6.181 4.878-6.181 4.878zm-26.356-14.496h-8.16s.123-6.705 0-7.2c-.197-.793-7.295-2.554-10.08-4.8-2.663-2.148-2.581-2.042-2.88-3.84-.237-1.426.453-2.166 1.92-2.4 1.467-.234 2.922-.108 4.8.96 1.359.773 7.004 2.209 10.56 2.4 3.556.191 4.564 1.153 11.04-2.4 3.211-1.762 1.473-1.961 3.36-2.88 1.166-.568 3.532.433 3.84 1.92.308 1.487-.243 3.303-1.92 4.8-1.27 1.134-7.056 5.713-12.48 6.24-.105 1.874 0 7.185 0 7.2z"/><circle cx="174.678" cy="166.819" r="141.248" stroke="#000" stroke-width="21.99" fill="none" transform="matrix(.455 0 0 .455 455.179 16.381)"/><circle cx="154" cy="153" r="63.963" stroke="#000" stroke-width="11.43" fill="none" transform="matrix(.525 0 0 .525 452.946 11.991)"/><g><path d="M540.04 114.4l9.6-38.88c1.447-.191 2.604.212 3.36 1.44l-9.12 38.4s-1.902.514-3.84-.96zM516.52 107.68c.983.696 1.935.413 2.88.48l8.16-38.88-3.36-.48-7.68 38.88z" stroke="#000" stroke-width="0.7008" fill="none"/><path d="M551.56 82.72s7.328-2.403 8.16-1.92c.832.483-.084 5.052-.48 5.76-.396.708-4.32 20.64-4.32 20.64l-9.6 2.4 6.24-26.88zm-2.4 14.88c.838-.638 5.746-1.665 6.24-.96.494.705.032 3.622-.96 4.32-.992.698-6.07 2.219-6.24 1.44-.17-.779-.263-3.869.96-4.8zm2.4-9.6c.8-.72 2.508-1.343 3.84-1.44 1.411-.103 2.417-.353 2.4.96-.011.831.156 1.967-1.44 2.4-1.596.433-5.561 1.487-5.76.96-.199-.527.354-2.334.96-2.88zM548.2 81.28s-.695.794-1.44 0-6.06-5.244-6.72-5.28c-.66-.036-1.285-.528-1.44.48-.155 1.008-6.156 24.313-5.76 25.44.396 1.127 8.06 7.454 8.16 8.64.69-2.992 7.2-29.28 7.2-29.28zm-11.52 10.56c-.953.053-2.175 4.148-1.92 4.8.627 1.602 5.597 6.629 6.72 6.72 1.032.084 2.697-5.051 1.92-6.24-.777-1.189-4.973-5.376-6.72-5.28zm1.92-8.64c.88 1.28 5.703 5.297 6.24 5.28.979-.032 1.467-1.217.96-2.4-.297-.692-5.668-5.328-6.24-5.28-1.44.121-1.448 1.69-.96 2.4zM527.559 69.304l.001-.024-.001.024c.052.205.512 1.456.481 1.896-.035.496 7.997 10.22 7.68 11.04-.317.82-7.498 28.081-8.16 28.32-.662.239-5.335-6.678-5.76-7.2-.425-.522-1.44 0-1.44 0s7.068-33.029 7.199-34.056zm-4.799 28.296c-.236-1.926 1.008-6.693 1.44-6.72 1.227-.076 5.635 6.652 5.76 7.2.331 1.455-.765 6.846-1.44 6.72-1.1-.205-5.464-4.789-5.76-7.2zm2.88-14.88c.64 1.68 4.745 7.09 5.28 7.2 1.573.325 2.409-1.362 1.92-2.4-.489-1.038-4.387-7.24-5.76-7.68-.853-.273-1.822 1.877-1.44 2.88zM517.046 105.527c.085-.513.2-1.73-.526-2.167-.93-.559-8.436 3.541-8.64 2.4-.204-1.141 4.99-32.217 5.76-33.12.77-.903 10.028-2.743 10.56-2.88-.802 3.373-6.582 32.846-7.154 35.767l-.046.233.046-.233zm-7.246-8.887c1.742-1.603 7.363-3.44 8.16-3.36.898-.041.023 3.764-.48 4.32-1.36 1.2-6.42 3.08-7.68 2.88-1.27-.159-.134-3.094 0-3.84zm2.88-14.4c1.26-1.381 6.8-3.84 8.16-3.84 1.139.02.195 3.194 0 3.84-1.35 1.212-6.8 3.36-8.16 3.36-1.12 0-.84-2.619 0-3.36z"/></g></g></g><g stroke="#000" stroke-width="2" fill="none"><path d="M851 78c-.757 1.888-7.99 7.865-10 10s-1.43 11.865-3 13c-1.57 1.135-4.27 2.705-3 4 1.27 1.295.33 3.985 0 6s-3.03 4.945-2 7c1.03 2.055.25 5.145 0 6-.25.855 4.708 5.398 4 8-.708 2.602-5.884 3.566-5 6 .884 2.434 6.266 5.932 6 9-.266 3.068.167 11.56-1 12-1.167.44-2.571 3.038-2 4 .571.962 1.395 1.434 0 3s-3.394 2.732-4 5c-.606 2.268-1.199 9.115-3 11-1.801 1.885-5.316 5.923-5 8 .316 2.077 1.06 4.746 0 6-1.06 1.254-4.876 3.602-5 6-.124 2.398-2.405 4.949-5 6-2.595 1.051.345 6.164-7 8-2.607.652-2.055-2.027-8 2s-2.61 7.299-13 9c-2.448.401-13.693 19.514-16 21-2.307 1.486-2.678 7.043-4 8-1.322.957-4.879 5.535-7 4-2.121-1.535-6.146-2.955-8-1s-7.102 2.144-9 3c-1.898.856-4.073 5.967-6 6-1.927.033-2.075-1.378-4-1-1.925.378-11.46-.696-14 8-2.54 8.696 2.115 7.241 1 10-1.115 2.759-1.116 7.607-2 10-.884 2.393-3.807 9.842-5 11-1.193 1.158-4.563.45-3 6 .759 2.695-1.647 6.982-3 9s-3.829 4.839-4 7c-.171 2.161-2.227 9.975-5 10-2.773.025-17.957.368-18 0-.043-.368-3.825 7.219-8 9-1.546.659.007 1.933 1 3s1.449 3.263 0 4c-1.449.737-5.784 3.954-6 5-.216 1.046-5.558 8.403-6 10-.442 1.597-.478 3.881-2 5-1.522 1.119-6.58 3.476-7 6-.42 2.524 1.076 3.051 0 4-1.076.949-1.645 2.267-1 4s.993 3.514 0 4c-.993.486-2.352 1.189-2 3 .352 1.811 1.651 6.62 3 9s2.651 3.819 2 5c-.651 1.181-.857 1.936 0 3s.554-.44 1 1c.446 1.44 1.651 3.414 0 4-1.651.586-6.65-.03-9-1-2.35-.97-5.49-2.113-7-2-1.51.113-3.181.642-5 1s-4.315-1.21-5 0c-.685 1.21-2.886 2.706-3 4-.114 1.294.673 2.609-1 3s-4.51.505-5 2c-.49 1.495-.336 6.088-1 7-.664.912-3.702 4.81-6 5-2.298.19-7.607.607-9 0-1.393-.607-4.051-2.274-7-1s-6.914 1.984-9 1c-2.086-.984-8.413-5.904-9-7-.552-1.031-.874-3.069 0-4s-2.861-1.839-2-3c.861-1.161 2.448-2.287 4-2 1.552.287 1.757.139 3-1s4.491-4.759 5-5c1.234-.585 2.088-1.953 4-2 2.128-.053 2.797-.773 4-1 1.203-.227 3.986-1.578 4-3 .014-1.422 1.092-2.117 2-2l2 1c.711-.044 2.772-1.23 3-2 .228-.77.962-1.804 2-2 1.038-.196 1.83 1.077 2 0 .17-1.077-.59-7.121 0-8 .59-.879 1.242-5.991 1-7-.242-1.009-1.773-5.678-3-5-1.227.678-.969 1.393-2 2-1.031.607-4.969 1.199-6 1-1.031-.199-2.687.944-3 2-.313 1.056-1.258 5.051-3 5-1.742-.051-2.97.743-4 1-1.03.257-1.594.958-2 2-.406 1.042-.286 1.616-1 2-.714.384-1.373-.029-2 1s-2.098 5.858-2 7c.098 1.142-.454 1.113-1 2s.19 2.529-1 3c-1.19.471-3.488 1.966-4 1s-2.152-4.328-2-5c.28-1.234-.305-2.864 0-4 .347-1.294 1.539-1.519 2-3 .419-1.348 1.539-3.096 1-4-.539-.904-1.938-3.62-3-3-1.062.62-7.039 2.676-9 2-1.961-.676-5.106-2.385-6-2-.894.385-1.583 2.34-3 2-1.417-.34-3.228-.613-4 1-.772 1.613-.872 6.012 0 7 .872.988 2.356 1.791 2 3-.356 1.209-1.161 3.335-2 4s-1.718.65-2 2c-.282 1.35-.007 4-1 4s-2.557 1.55-3 2c-.443.45-.806.543-2 1-1.194.457-5.021.235-7 1s-1.618 3.41-2 4c-.382.59-1.381 2.264-3 3-1.26.573-2.841 1.671-6 0s-3.733-1.288-4-2c-.267-.712.871-2.336 0-3-.871-.664-1.129-.92-1-2s.897-3.732 1-4c.103-.268 1.663-1.471 1-3s-.646-2.558 0-3c.646-.442 3.173-3.095 3-4-.173-.905.327-1.451 1-2 .673-.549.522-3.223 1-4 .478-.777 2.314-1.734 2-3-.314-1.266.267-2.553 1-3 .733-.447 2.335-1.673 4-2 1.665-.327 2.892.105 3-1 .108-1.105.865-1.741 0-3s-3.129-1.969-5-2c-1.871-.031-3.411-.694-4-1-.589-.306-4.009.46-5 1-.991.54-2.68 3.346-4 3-1.32-.346-1.492-1.318-3-1-1.508.318-3.271 2.817-4 4-.729 1.183-2.573 2.481-4 2-1.427-.481-3.305-.626-5 0-1.695.626-5.306 2.676-6 4-.694 1.324-2.004 3.133-4 3s-5.139-1.707-6-3c-.861-1.293-7.71-8.251-9-9-1.29-.749-3.12-.466-4-2-.88-1.534-.502-5.064-2-6-1.498-.936-10.04-7.648-13-8-2.96-.352-4.289-1.165-5-2-.711-.835-5.309-1.152-4-2 1.309-.848 3.221-3.085 5-2s3.289 1.452 5 1c1.711-.452 3.92-2.313 3-4-.92-1.687-.752-3.327-3-4s-4.765-.71-5-2c-.235-1.29-.947-1.602-2-2-1.053-.398-2.128 1.626-3 1-.872-.626-1.732-1.549-1-3s1.342-2.891 3-4 4.342-5.087 3-6c-1.342-.913-3.772-.529-4 0-.228.529-1.779 1.94-3 1s-2.028-1.966-3-1-.914 2.216-2 3c-1.086.784-2.498.008-3 1-.502.992.012 1.753-1 3s-4.646-.656-6 1c-1.354 1.656-4.184 4.217-5 5-.816.783-4.499 3.633-4 6 .499 2.367 2.548 4.419 3 7 .452 2.581 2.038 1.876 2 3-.038 1.124.051 1.923-1 3s1.095 4.212 1 5c-.105.875-2.17 2.44-3 3-.83.56-1.425-1.493-2-3s-1.701-2.09-3-2c-1.299.09-2.084.023-3-1-.916-1.023-4.822-.621-5 0-.178.621-3.95 2.084-5 1-1.05-1.084-1.964-1.017-3-1-1.036.017-5.226 1.191-6 0s-1.132-.809-3-1c-1.868-.191-5.535-.882-6 0-.465.882-5.932 5.245-6 6-.068.755-1.603 2.595-3 3-1.397.405-2.946-.016-4 1-1.054 1.016-.396 3.092-2 4-1.604.908-5.53 2.911-6 3-.47.089-10.525 4.576-16 10 0 0-2.035 1.495-3-3-.965-4.495-8.734-11.976-10-13-1.4-.521-3.56-.66-3-2 .56-1.34 2.635-4.822 2-6-1.843-1.01-4.11-1.755-4-4 .11-2.245 2.689-2.87 4-4 1.814-2.305 4.655-4.401 3-8-1.655-3.599-3.123-5.448-4-6-.877-.552-1.412.129-2-1 1.795-2.169 2.588-3.469 1-5-1.588-1.531-2.278-.522-2-2s7.387-10.624 9-11c1.613-.376 2.653.597 3.492-.443.839-1.041 1.225-1.067 2.508-1.557s4.925-3.504 5-5c.075-1.496-1.424-5.793-2-7-.576-1.207-.528-3.895 1-5s2.95-4.448 5-4c2.05.448 2.105 3.385 4 3 1.895-.385 7.464-1.098 8-2 .536-.902 3.996-3.801 3-7s-1.789-5.795-3-6c-1.211-.205-4.148-.397-6-1-1.852-.603-2.33-.81-3-2-.67-1.19-1.975-2.476-3-4s-.555-.841-1-3c-.445-2.159-1.334-7.076-4-10-2.666-2.924-3.376-2.14-4-4-.624-1.86-1.107-2.183-2.508-3-1.401-.817-1.668.565-3.492-1s-2.024-5.429-5-5c-2.976.429-5.067 2.608-5 4 .067 1.392-.584 2.021 1 3 .186 3.006-2.915 5.246-5 5-2.085-.246-4.366-2.006-7-2-2.634.006-4.639-.72-5-2-.361-1.28-4.606-2.991-5 1-.394 3.991 1.124 2.021 1 4-.066 1.052.307 4.54-3 3-3.217-1.73-4.406-.243-5-2-.594-1.757.649-2.146-2-3-2.649-.854-3.883.602-4-1-.117-1.602 1.515-5.757 0-7-2.353-1.383-9.064-4.843-12-5-2.098-3.723-.295-3.846-2-7s-4.073-5.168-6-5c-1.927.168-5.991-1.555-7-3-1.009-1.445-.168-5.871-3-6-2.832-.129-6.065.715-7-1-.935-1.715-.801-3.376-3-3-2.199.376-1.929 1.904-5 1-3.071-.904-5.756-2.762-7-4-1.244-1.238-2.938-.665-3-2-.062-1.335 1.67-3.422 0-5-1.67-1.578-.932-3.319-2-5s-6.221-7.286-7-7c-2.037 2.103-15.143 15.694-16 19-.857 3.306-.502 3.043-2 3-.671-.019-2.749 1.37-3.87 3s-1.286 3.499-2.13 4c-3.482-1.451-13.123-3.966-14-9-.877-5.034-1.15-3.261 0-6s4.36-1.836 3-4c-1.36-2.164-11.4-9.474-14-9-2.6.474-3.641.924-7 0s-5.817-3.666-7-6c-1.183-2.334-2.441-2.058-3-3-.559-.942-.602-5.746-1-6-.398-.254-.246-3.229-2-3-1.754.229-2.541-1.481-3-2-.951-1.075-.63-3.28 0-5 .63-1.72 3.987-4.326 4-6 .013-1.674 4.41-5.158 6-7 1.59-1.842-1.174-4.11 2-4 3.174.11 8.995 4.722 11 6 2.005 1.278 2.52 4.524 6 5s6.478 1.47 8 0c1.522-1.47 3.051-4.38 5-4 1.949.38-.202 2.596 2 2 2.202-.596 3.607-2.127 6.13-3 2.523-.873 2.254-2.561 5.87-1s8.294 4.91 10 6c1.706 1.09 2.97 4.759 5 4 2.03-.759 2.856-3.759 7-4 4.144-.241 3.146-.994 6-2s3.562-1.41 5-3c1.438-1.59 2.779-.615 6-1s4.021-.796 7-1c2.979-.204 5.238 3.644 8 3 2.762-.644 3.046-5.062 7-7 3.954-1.938 3.24-4.369 8-3 4.76 1.369 9.048 2.276 11 3 1.952.724 3.958 3.385 7 4 3.042.615 5.477-.097 6 2 .523 2.097-1.438 3.036 2 4 3.438.964 4.52.681 7 2 2.48 1.319 4.454 4.489 7 7 2.546 2.511.798 3.748 5 4 4.202.252 1.6-.914 5 1 3.4 1.914 3.89 5.321 6 5 2.11-.321 5.438-1.263 7 1 1.562 2.263 2.493 3.334 3 5 .507 1.666-3.013 3.671 1 4 4.013.329 5.741-.841 8 0 2.259.841 3.235.599 5 2 1.765 1.401 4.248 4.401 7 5 2.752.599 4.742.022 6 2s-.426 2.076 4 3c4.426.924 10.461.974 12 1 1.539.026 2.515.444 3 3 .485 2.556.792 8.023-1 10-1.792 1.977-4.106 3.879-3 6 1.106 2.121 2.648 2.596 5 2 2.352-.596 3.6-1.41 4-3 .4-1.59-.141-2.922 1-2 1.141.922.402 4.982 2 5 1.598.018 2.872-.633 5 0s3.981 2.35 5 4c1.019 1.65.578 3.223 3 3 2.422-.223 1.379-1.258 4 1s2.518 1.844 6 2c3.482.156 9.814-.934 11-3s4.098-2.145 3-4c-1.098-1.855-1.824-.766-1-3 .824-2.234 1.182-2.434 3-3 1.818-.566 3.261-.417 3-3-.261-2.583.274-5.628 4-6 3.726-.372 4.997-1.122 6-3 1.003-1.878 4.088-3.303 7-3 2.912.303 3.299-1.852 5-4 1.701-2.148 1.902-3.442 6-3 4.098.442 5.144.786 8 0s7.205-.449 8-2c.795-1.551 4.194-5.998 7-7 2.806-1.002 4.483-.233 6-2 1.517-1.767 3.507-7.993 2-10-1.507-2.007-4.131-6.361-2-7 2.131-.639 5.056-2.446 6-4 .944-1.554 4.25-7.223 7-7 2.75.223 3.618.855 6 1 2.382.145 6.245 2.018 8 4 1.755 1.982 1.787 4.94 3 3 1.213-1.94 3.312-9.458 6-10 2.688-.542 7.584-2.892 10-1 2.416 1.892 2.765 3.042 3 6 .235 2.958-.549 6.175-2 6-1.451-.175-1.886-1.156-3 0s-1.869 4.905-4 6c-2.131 1.095-1.158 3.471-4 3-2.842-.471-1.731-1.378-5-2-3.269-.622-5.557-.143-6 1-.443 1.143-1.154 4.502-3 4-1.846-.502-.365-1.908-3-1-2.635.908-5.672 2.279-4 4 1.672 1.721 1.72 1.562 4 2 2.28.438 3.618.388 3 2-.618 1.612-4.365 3.063-5 5-.635 1.937-.341 4.431-1 6s-2.522.438-2 3c.522 2.562-.72 3.492 2 4 2.72.508 4.829 5.498 7 5 2.171-.498 5.173-1.713 7-3s2.541-1.785 5 0 3.861 4.938 7 5c3.139.062 4.819-.007 7 1s2.91 1.607 7 1 3.766-2.574 7-2c3.234.574 1.954 3.071 5 3 3.046-.071 3.834.836 6-1 2.166-1.836 1.328-3.55 4-3 2.672.55 3.853 1.71 7 2 3.147.29 5.118 1.041 7 0 1.882-1.041 3.354-.297 4-2 .646-1.703 1.571-5.177 5-6 3.429-.823 4.987-1.135 6-4s2.741-4.166 5-5c2.259-.834-1.891-1.991 3-3s5.381.654 10 1 6.363.111 8-1c1.637-1.111 3.141.551 5 1 1.859.449 3.533 1.804 5 0s2.286 1.394 5 0 5.859.514 7-3c1.141-3.514 5.173-6.191 5-9-.173-2.809 2.493-8.228 5-9 2.507-.772 2.776.97 3-2 .224-2.97.042-4.374 3-7 2.958-2.626 3.765-2.254 5-5 1.235-2.746-.042-1.977 5-4 5.042-2.023 6.808-2.038 7-5 .192-2.962 3.869-2.737 5-5 1.131-2.263-2.203-4.207 1-6 3.203-1.793 3.424.66 7-2s8.184-10.943 11-11c2.816-.057 3.6 3.436 5 0s2.04-4.775 3-6c.96-1.225 1.299-.577 2-3 .701-2.423.125-1.324 2-3s1.818-2.794 2-5c.182-2.206 1.414-3.794 3-3s4.728.169 5-3c.272-3.169-2.634-2.681-2-4 .634-1.319 4.499-2.687 4-4-.499-1.313-.122-2.585-2-2-1.878.585-5.411 2.385-6 0-.589-2.385.39-5.471 2-7 1.61-1.529 5.12-5.61 7-7 1.88-1.39 4.591-.514 6-3 1.409-2.486 4.447-3.623 6-5 .12-3.322-2.222-2.479-1-5s2.525-.769 3-4c.475-3.231.248-10.529 2-12s4.207-3.614 6-5c1.793-1.386 2.111-.566 4-2 1.889-1.434 1.039-1.849 3-2 1.961-.151 4.611 2.212 6 4 1.389 1.788 1.901 5.29 4 4s2.467-.975 3-4c.533-3.025 1.167-2.415 3-4s1.04-5.452 2-7 3.149-3.025 4-5-1.001-4.236 1-5c2.001-.764 9.295 1.862 10 7 .705 5.138-1.326 4.615-2 8-.674 3.385-.869 5.495-2 7s-2.869 4.658-2 6c.869 1.342.674 3.737 2 3 1.326-.737-1.013-2.601 2-3s3.97-2.058 6 0 4.338 6.774 6 8 3.375 6.322 6 7c2.625.678 3.019.449 4 0 .981-.449 1.791-2.943 2-4 .209-1.057-3.288-.95-2-3 1.288-2.05 3.333-2.318 4-5 .667-2.682 2.152-2.71 1-5-1.152-2.29-1.625-4.071-4-4-2.375.071-4.963-1.873-5-3-.037-1.127.856-3.698 0-4-.856-.302-.065-.319 0-2s2.29-1.657 0-3-1.089-1.537 0-4 .76-4.007 2-6c1.24-1.993-.462-2.983 3-3 3.462-.017 5.363-.748 6 1 .637 1.748-1.347 3.138 2 7s3.834 4.814 4 7c.166 2.186-1.033 4.434 1 5 2.033.566 3.304.206 4 1 .696.794 1.611 1.826 1 3s-1.178 2.637 0 2c2.561-1.384 3.165-.41 3 0z"/><path d="M620 186s3.789-4.681 4-6c.211-1.319 1.334-2.65 3-3 1.666-.35 3.32-1.684 4-2 .68-.316.175-.208 2 0s1.916-.736 4-2 6.873-4.018 9-5c2.127-.982 3.287-1.97 5-2 1.713-.03 1.142-1.577 3-1s1.717 1.72 3 2 2.259.182 2 2c-.259 1.818-.007 2.316-2 4-1.993 1.684-5.517 5.698-5 7 .517 1.302.597 1.487 0 3s-.286 1.342 1 3 3.731 2.904 3 5c-.731 2.096-3.303 3.152-3 4 .303.848 1.235 1.317-1 2-2.235.683-3.737 1.81-6 2-2.263.19-2.595 1.255-6 2-3.405.745-2.566.665-6 1-3.434.335-9.228-.207-10-2-.772-1.793-1.39-2.504 0-3s4.841-2.131 4-4c-.841-1.869-2.31-4.065-4-3-1.69 1.065-3.69 1.687-4 0-.31-1.687-1.59-2.513 0-4z"/><path d="M326 304s2.918-1.102 5-3 2.714-3.573 6-4c3.286-.427 8.2-.653 9-1 .8-.347 4.379-.733 6-1 1.621-.267 4.317-.883 5 0 .683.883.85 2.052 0 3s-1.457 1.22-1 3c.457 1.78 1.996 3.928 0 5s-6.64 3.333-7 5c-.36 1.667-1.172 2.655 0 4 1.172 1.345 2.904 2.363 2 4-.904 1.637-4.436 5.297-7 5-2.564-.297-11.71.053-13-2-1.29-2.053-.334-2.338-2-3-1.666-.662-2.258-.893-2-3s1.819-3.448 1-5-.575-2.065-2-2c-1.425.065-2.729-1.696-2-3 .729-1.304 2-2 2-2z"/><path d="M211.074 279.482c1.093-.159 2.809.583 5.926 1.518s2.591 1.978 5 0 7.628-7.118 10-7c2.372.118 1.489.488 4-1s7.603-7.078 10-8c2.397-.922 4.315-1.385 6-1 1.685.385 3.242 1.868 3 4-.242 2.132-.838 2.35-1 5-.162 2.65.399 4.062 1 6 .601 1.938-1.207 2.843 1 4s3.432 1.54 6 2c2.568.46 5.301.091 7 2 1.699 1.909 2.4 3.715 5 4 2.6.285 2.265 1.723 5 2 2.735.277 2.499 1.248 3-1 .501-2.248-1.957-9.935 0-10 1.957-.065 1.835.142 5 0s1.846-.402 4-1 4.872 4 7 4 3.121-.376 5 1 4.081 6.033 8 7c3.919.967 5.176.588 7 3 1.824 2.412 3.716 9.395 3 11-.716 1.605-2.517 3.804-2 6 .517 2.196-.357 7.451 1 9 1.357 1.549.95 1.845 1 3 .05 1.155-4.685 4.017-5 5-.315.983-1.915.564-1 2s2.472 2.495 2 3c-.472.505-3.704-1.118-5 0-1.296 1.118-2.803 1.955-5 1-2.197-.955-4.745-1.735-6-1-1.255.735-3.38 3.349-5 3-1.62-.349-1.161-.877-3 0s-3.325 2.908-4 4c-.675 1.092-2.099-.004-2 2 .099 2.004.353 3.543-1 4-1.353.457-2.578.784-3 2-.422 1.216-.045 3.098-1 3-.955-.098-2.899-1.427-3 1-.101 2.427.163 5.036-2 4-2.163-1.036-5.461-2.212-5-4 .461-1.788.926-3.384 1-5 .074-1.616-1.002-.705-1-3 .002-2.295-.921-2.026 0-4 .921-1.974.911-2.968-1-5s-3.874-6.925-5-9-3.341-3.794-3-6c.341-2.206 1.177-3.188-2-4-3.177-.812-3.145 1.195-5 0s-1.776-2.422-4-2c-2.224.422-1.561 2.275-4 2-2.439-.275-5.27-.484-6 1-.73 1.484.332 6.232-2 7-2.332.768-5.008-.301-8 1s-2.8 1.933-6 2c-3.2.067-4.431.017-6 1s-1.596 1.415-3 3-3.53 2.583-4 4c-.47 1.417-5.1 7.372-7 7-1.9-.372-2.881-1.881-4-4-1.119-2.119-2.958-2.355-2-4 .958-1.645.743-1.443 2-3 1.257-1.557 1.126-2.075 1-4-.126-1.925-2.433-5.17-4-6-1.567-.83-4.531-1.024-6-2-1.469-.976-3.535-2.586-3-5 .535-2.414.713-4.138 3-5 2.287-.862 2.334-.609 3-2 .666-1.391-.812-1.543 1-3s6.057-2.175 7-4c.943-1.825 2.604-2.35 3-5 .396-2.65 2.218-6.146 1-8s-1.779-5.165-1-6c.779-.835 3.069-3.371 4.074-3.518z"/><path d="M162 202c1.052.314 1.459 3.519 1 3-1.507 1.578-2.836 3.06-3 5-.164 1.94.75 4.076-1 5-1.75.924-1.691-.21-2 2-.309 2.21-.739 4.225 0 5 .739.775 1.358 2.149 0 3s-1.83.073-1 2c.83 1.927 1.267 5.534 4 8 3.961 3.574 1.48 6.022 3 7 7.742.768 12.112 1.437 15 0 1.969-.98 2.773-.446 3 1 .227 1.446 1 7 1 7s.66 5.041-1 6c-1.66.959-4.635 4.078-5 5-.365.922.21 3.47-2 3-2.21-.47-4.714-.244-5-2-.286-1.756-2.219-3.126-3-3-.781.126-1.402.014-2 0-.598-.014.125 10.173 2 12s13.08 5.784 13 8c-1.478 2.425-6.188 4.906-6 8 .188 3.094-.775 4.25 1 5s5.219.594 5 2c-.219 1.406-2.957.566-4 2-1.043 1.434-3.21 3.603-3 5 .21 1.397 1.468 7.543 0 8-1.468.457-6.116-.667-9 0-2.884.667-6.335 2.467-8 3-1.665.533-4.618 3.09-8 3-3.382-.09-6.327-1.728-8 0s-9.449 7.787-10 10c-.551 2.213-1.379 3.775-1 6s-.002 4.188-2 5c-1.998.812.681 3.924-2 4-2.681.076-4.915-.942-6 1s-6.553 4.998-7 7c-.447 2.002-.994 3.733-1 5-.006 1.267 1.726 3.797 1 4-.726.203-4.87 1.615-5 0-.13-1.615-.122-2.707-1-3-.878-.293-2.621.001-5 3s-4.615 3.059-5 6c-.385 2.941-.19 5.284-2 6-1.81.716-1.114 4.069-3 4-1.886-.069-3.877-1.038-4-3-.123-1.962-1.725-7.902-4-10s-2.579-1.999-4-1c-1.421.999-5.127.469-6 0-.873-.469-1.449-1.348-2 0-.551 1.348-1.267 2.597 0 4s3.432 1.591 2 3-3.002 4.327-4 5c-.998.673-1.969 4.671-4 4-2.031-.671-5.119-4.156-7-5-1.881-.844-5.295.731-6-1-.705-1.731-2.021-2.634 0-4s13.003-8.078 13-10c-.003-1.922-.835-5.185 0-6 .835-.815 2.396.101 2-2-.396-2.101-1.884-3.522-1-4 .884-.478 4.615-3.441 6-5 1.385-1.559 1.174-.876 1-3-.174-2.124-1.072-4.058-3-4-1.928.058-1.696-.241-3-1s-1.62-2.961-3-2c-1.38.961-1.641 3.656-2 5-.359 1.344-2.678 4.043-4 5-1.322.957-2.161.778-3 3s-.769.912 0 3 1.93 2.025 1 3c-.93.975-2.134.788-3 2-.866 1.212-.897 2.733-2 4s-2.074 6.636-4 5c-1.926-1.636-10.217-10.565-11-14-.783-3.435-1.652-4.301-3-6-1.348-1.699-1.937-8.654 0-10s13.55 2.158 14 1c.45-1.158 2.711-4.986 2-8-.711-3.014-4.912-8.108-4-10 .912-1.892 3.425-3.312 5-4 1.575-.688 1.796 1.092 2-2 .204-3.092-.119-3.44 2-4 2.119-.56 4.778-2.686 6-4 1.222-1.314 1.493-1.568 3-2 1.507-.432.788-1.933 3-3 2.212-1.067 2.572-1.1 4 0s3.582 2.691 6 2c2.418-.691 4.758-2.529 6-5s1.473-2.173 3-4-.366-8.064 1-9c1.366-.936 2.719 1.033 4-1 1.281-2.033 2.327-3.38 1-4-1.327-.62-3.764.325-3-2 .764-2.325 1.783-2.976 4-3 2.217-.024 3.449.163 5 0 1.551-.163 6.088.051 7-1 .912-1.051 2.039-2.196 2-4-.039-1.804.668-14.999 0-17-.668-2.001-.31-2.197 0-5s1.787-9.62 0-11c-1.787-1.38-4.019-4.663-5-4-.981.663-4.013 3.213-4 4 .013.787-1.846 1.928-2 3-.154 1.072-1.007 2.244-1 4 .007 1.756-.19 2.706-1 3-.81.294-1.023.673-2 3-.977 2.327-.98 3.801 0 6s-1.065 6.278-2 7c-.935.722-3.36 2.886-4 1-.64-1.886-.968-4.382 0-6 .968-1.618 2.36-1.795 1-3-1.36-1.205-5.273-4.671-8-5-2.727-.329-1.568-.3-4 0s-8.927 2.287-9 0c-.073-2.287-.109-10.808-1-12-.891-1.192-1.948-2.544-1-4s6.691-4.994 7-7c.309-2.006.195-4.177 2-4 1.805.177 3.05.258 4 2 .95 1.742.378 2.833 0 4-.378 1.167-1.23 6.304 0 8 1.23 1.696 4.339 7.019 6 6 1.661-1.019 3.613-2.899 4-5s2.746-1.635 3-4 2.473-5.204 0-7c-2.473-1.796-3.473-1.45-5-4-.409-3.598-1.479-8.922 0-10 1.479-1.078.731-1.077 1-3s.236-3.701 2-4c1.764-.299 2.251-1.798 4 0s4.449 5.965 6 5c1.551-.965 2.169.181 2-2-.169-2.181-1.229-3.555 0-5 1.229-1.445 1.695-2.764 3-2 1.305.764 3.787.901 3 3-.787 2.099-2.305.826-2 3 .305 2.174-1.66 3.659 1 4 2.66.341 2.754 2.358 4 1s-.21-2.712 3-2c3.21.712 2.946 2.057 5 1s4.508-6.497 8-5c3.492 1.497 2.733 4.196 5 4 2.267-.196 3.007-.126 4-1 .993-.874 5.388-.357 7-1s2.5-1.442 3-3 3.628-1.937 5 0c1.372 1.937 1.343 3.728 3 5 1.657 1.272 1.476 2.841 3 3 1.524.159 3.863.847 5-1s2.948-2.314 4-2z"/></g><g stroke="#000" stroke-width=".75" fill="none"><path d="M759 101c1.162.445 3.486 1.334 5.282 1.171 1.833-.167 4.265-3.142 5.718-2.171 1.453.971-1.436 6.147 3 8 3.654-1.786 1.825-3.931 6.594-3.256 3.033.428 1.309 1.517 4.406 1.256 3.93-.331 4.809-2.359 7-1.256 2.191 1.102 11.316 14.178 10 17.256-1.316 3.078-2.969 3.654-3 6-.031 2.346 1.746 3.857 0 5-1.746 1.143-3.314 1.997-4 5-.686 3.003-.291 3.935-3 5s-4.189-.945-4 3c.189 3.945.221 6.87-2 7-2.221.13-4.548-.298-5.406 5-.857 5.298 1.464 4.66 1.406 7-.058 2.34.309 3.128-1.406 5-1.715 1.872.858 1.718 0 4-.857 2.282-1.676 2.533-3.594 4s-2.489 2.613-3 4c-.511 1.387-.957 1.878-3 2-2.043.122-.159 8.568-3 9-2.841.432-3.034-1.535-6 0s-3.767 2.463-6 5-5.152 4.278-7 5c-1.848.722-1.54 3.928-2 6-.46 2.072-2.967 2.783-3 5-.033 2.217.605 2.598-1 4-1.605 1.402-1.415 1.576-2 4s.545 2.881-1 4c-1.545 1.119-3.27.226-4 3s.16 5.959-2 7c-2.16 1.041-11.835 6.671-13 6-1.165-.671-1 0-1 0s-1.18-2.431-3-1-3.77 5.504-5 8c-1.23 2.496-4.523 5.869-6 7-1.477 1.131-3.133 1.847-5 4s-1.478 4.499-4 4c-2.522-.499-5.313-2.846-6-4-.687-1.154-1.923-3.906-4-4-2.077-.094 2.077-2.761 0-4-2.077-1.239-4.288-.844-6 0-1.712.844-2.001.381-4 0s-2.693-.599-4 0-2.366 1.851-3 0c-.634-1.851-2.428-2.759 0-5s4.224-3.104 4-5c-.224-1.896-.428-2.591-1-5-.572-2.409-2.083-3.956 1-6s4.547-1.589 7-2c2.453-.411 7.422.536 8-3 .578-3.536-3.721-4.054-2-6 1.721-1.946 3.627-.787 2-4-1.627-3.213-2.128-2.744-2-5 .128-2.256.282-4.967-2-6-2.282-1.033-4.573-1.864-6-2M678 338s-2.816-9.647-5-12c-2.184-2.353-3.488-3.89-4-6s-1.448-1.93 0-3 1.124-1.255 0-3-5.854-4.008-6-6c-.146-1.992 1.452-4.78 2-7 .548-2.22 1.044-3.778 0-6s1.779-3.653 0-6-1.811-3.978-4-5c-2.189-1.022-1.891 1.104-4-1s-.216-2.711-3-4c-2.784-1.289-3.909-.548-5 0-1.091.548-.661 2.349-4 2-3.339-.349-4.129-1.488-6 0-1.871 1.488-1.719 1.777-4 2-2.281.223-2.412.592-4 2s-1.839 3.002-3 0-1.164-3.976-3-6-5.144-2.546-3-4c2.144-1.454 4.221-2.258 6-4s5.564-6.378 9-7h6c3.439-.622 2.191-.928 6-2s2.679 1.807 6 0 8.22-8.895 13.517-10.814M648 393s-1.647-1.421-3-4c-1.353-2.579-3.015-1.853-5-1-1.985.853-6.335 1.419-8-2s-.415-3.493-2-8-3.135-5.093-3-8c.135-2.907 1.449-2.277-1-4-2.449-1.723-5.503-.181-5-3 .503-2.819.937-4.269 2-7s3.529-2.741 3-6c-.529-3.259-2.287-6.597 0-8 2.287-1.403 5.393-.421 8-2s4.145-3.733 6-4c1.855-.267 1.329-1.381 3-3s3.209-1.869 5-2 .753-2.957 3-5 3.993-.757 6-3 3.145-3.821 2-7 .201-2.981 1-5c.799-2.019-1.951-2.061 0-3 1.951-.939 3 0 3 0M628.024 341.284s-4.375-1.417-6.024-.284-2.255.403-4 0-3.055-1.773-4 0c-.945 1.773-1.391 3.251-2 2s-2.655-2.013-4-4c-1.345-1.987-1.663-2.477-4-3-2.337-.523-3.407-.661-3-2 .407-1.339-.167-3.589 3-4 3.167-.411 3.329.283 6 0s3.361.123 5-2c1.639-2.123 6.217-3.109 7-3 .783.109 2.705.835 2-1-.705-1.835-2.783-2.197-2-4 .783-1.803 5.377-4.645 5-7-.377-2.355-1.287-2.397 0-5s2.249-1.173 1-4-5.391-3.285-3-6 3.305-2.933 4-5c.695-2.067.925-3.635-.172-6.486M577 246s2.473 3.595 0 5c-2.473 1.405-6.295 5.939-4 7s5.433 1.707 7 1c1.567-.707 4.545-.813 6-3 1.455-2.187 1.937-2.837 4-2 2.063.837 3.761 1.867 4 5 .239 3.133-.159 9.475 1 12 1.159 2.525 1.465 4.531 4 5 2.535.469 2.265-.053 4 2 1.735 2.053 1.321 3.483 3 2s1.889-.693 3 0 1.177 2.379 3 0 2.337-4.469 4-4c1.663.469 5.428.029 5.428.029M628 415s1.505-4.493 0-7c-1.505-2.507-.271-5.781-3-6-2.729-.219-2.711.251-4 2-1.289 1.749-1.383 2.763-3 2-1.617-.763-2.415-1.317-4-2s-3.343 1.323-4 0M606 385s-.399-5.181 0-7 .705-.085 1-3c.295-2.915-3.063-1.629-1-4s1.761.595 3-3c1.239-3.595 2.937-1.237 1-6-1.937-4.763-3.679-2.421-3-5 .679-2.579 3.321-2.477 2-4-1.321-1.523-2.263-1.661 0-3s4.073-.437 4-3c-.073-2.563 0-4 0-4M600 386s.945-3.845-1-6c-1.945-2.155-2.087-3.541-4-4-1.913-.459-1.735 1.531-4-1-2.265-2.531-9.239-7.325-11-8-1.761-.675-3.471.259-3-2 .471-2.259.393-4.413-2-5-2.393-.587-5.047-3.013-5-5 .047-1.987-1.199-5.309 0-8s2.385-1.597 0-4-3.647-2.653-5-4c-1.353-1.347-4.263-1.533-3-4s3.585-1.437 3-4c-.585-2.563-1.591-10.349 0-11 1.591-.651 3.001-.149 3-2-.001-1.851.417-1.893 2-2 1.583-.107 2.961 1.515 4 0 1.039-1.515.481-3.461 3-3 2.519.461 3.945.163 4 3 .055 2.837-1.671 3.403-1 6s1.825 4.539 4 6c2.175 1.461.705 3.515 4 3 3.295-.515.353-.845 4-1 3.647-.155 5.105 5.675 7 5 1.895-.675 2 0 2 0M578.74 313.289s-.995-3.326 2.26-5.289c3.255-1.963 3.753-2.117 6-3s4.521-1.229 3-4-4.383-1.469-5-5c-.617-3.531 2.025-2.245 0-5s-6.487-2.637-4-5 2.825-3.237 4-6c1.175-2.763 2.601-2.885 4-5s-.423-3.325 1-4c1.423-.675 5-1 5-1M560 393s-1.471-1.677 0-4 3.553-2.221 2-4-5.839-3.565-6-6c-.161-2.435 2.721-2.317 0-5s-5.951-4.965-6-6c-.049-1.035 2.625-6.309 5-7 2.375-.691 3.529.099 5-1s5.745-1.749 7-2c1.255-.251 2.825-2.421 3-3M538 387s1.761-1.885 5-2c3.239-.115 3.353 1.363 4-2 .647-3.363.089-4.285-2-6-2.089-1.715-5.303-3.213-6-4-.697-.787-2.183 1.811-4 0-1.817-1.811-7.319-7.949-7-10 .319-2.051.353-4.269 2-7s3.505-2.533 2-5-1.727-3.597-2-7c-.273-3.403-.751-6.069 0-8s.913-1.333 0-4-3.343-4.165-2-7 3.953-6.557 7-7c3.047-.443 2.393.875 4-1 1.607-1.875 5.049-3.997 8-3 2.951.997 3.081 2.443 5 3 1.919.557 3.985-.093 5 1 1.015 1.093.761 1.755 3 2 2.239.245 5 0 5 0M540.4 374.005s.385-3.786 2.6-4.005c2.215-.219 3.225-1.605 4-2 .775-.395 1.641-.245 3 0M507 394s-2.407-4.885-2-7c.407-2.115 1.929-2.125 2-5 .071-2.875-3.431-7.189-2-9s4.905-3.533 4-6c-.905-2.467-3.607-3.773-2-6 1.607-2.227 3.321-3.373 4-6 .679-2.627.761-2.765 2-5 1.239-2.235-.391-2.773 1-5s3.073-1.421 3-4c-.073-2.579-1.719-1.965 0-4s3.513-3.613 3-5c-.513-1.387-.783-3.077 3-3 3.783.077 5.325-.033 5.325-.033M477 388l1.115-.947c.936-.793 1.169.693 1.885-2.053.831-3.187-1.01-5.16 1-7 1.763-1.613 1.831-1.567 2-3 .241-2.046-1.207-6.221 1-7 2.207-.779 2.513-2.309 3-5 .487-2.691.777-3.517 3-4 2.223-.483 3.473-.653 4-3 .527-2.347.993-3.141 3-3 2.007.141 1.945-.893 3-3s2.721-1.205 4-3-.047-1.981 1-4 .649-1.549 2-3-.887-3.941 1-5c1.887-1.059-.239-1.533 3-2 3.239-.467 9-1 9-1M511 333s-.942-1.771-3-3-3.227-1.151-4-3c-.773-1.849-1.155-2.803-3-4s-4.797-1.545-4-3c.797-1.455 1.121-3.387 2-5s1.402-1.853 2-3c.598-1.147 0-4 0-4M453 250s.921.802 2 3 1.211 2.897 3 3c1.789.103 2.491-.628 3 2v5c.69 1.791 2.423 3.956 4 5s1.256-.311 3 1 2.645 5.531 5 6c2.355.469 3.483-1.284 5 0s5.234.526 6 0M475 233s.017 1.548 1 4 .845 2.833 2 4c1.155 1.167 1.397 2.208 2 3 .603.792 3.686 2.865 4 4 .314 1.135.501.973 0 3s-1.942 1.168 0 3 3.614 1.915 4 4c.386 2.085 1.171 2.376 2 3 .829.624 3 2 3 2M496 228s3.407-.403 5 1 1.058 2.878 3 3c1.942.122 3.805-1.208 5 0 1.195 1.208 2.181 1.615 3 2s2.466.81 3 2c.534 1.19 1 4 1 4M530 263s-1.217 5.594-3 6c-1.783.406-3.213-.478-2 2 1.213 2.478 2.715 3.259 4 4 1.285.741 6.009 3.196 6 5-.009 1.804.914 4.857 0 6-.914 1.143-5.837 5.536-6 8-.163 2.464-.308 1.536-2 2-1.692.464-1.955 2.007-3 3-1.045.993-4.059 1.658-4 3 .059 1.342 1.588 1.491 2 3 .412 1.509 2.394 1.867 0 3s-4.349 1.953-5 1c-.651-.953-1.638-2.776-3-2-1.362.776-2.738.057-3 2s-.661 2.962-2 2c-1.339-.962-1.322-3.228-4-3-2.678.228-3.159-.771-5 0-1.841.771-3.363 2.677-5 1s-2.634-1.518-2-3c.634-1.482 1.637-2.084 1-4s-1.291-3.921-3-5c-1.709-1.079-3.205-4.677-3-6 .205-1.323-.386-.967 0-3s.99-2.157 2-3 2.347-1.537 1-3-2.309-.094-4-2c-1.691-1.906-4.852-3.569-3-5 1.852-1.431 7.171-4.053 7-6-.171-1.947 1.275-4.081 2-6 .725-1.919 1.836-2.642 3-4s10-6 10-6M525 236s-.326.548-2 2-3.077 2.005-5 2c-1.923-.005-3.453.104-4 1-.547.896-6.304 5.865-7 7-.696 1.135-2.118 5.073-1 6 1.118.927.9.087 3 2s1.366 2.829 3 4c1.634 1.171.466 2.367 2 1s-.059-2.361 3-2c3.059.361 3.502 1.729 5 1 1.498-.729 1.606-3.533 3-1s-.108 4.2 2 4c2.108-.2 1.629-1.248 3 0s2.095 2.2 3 1c.905-1.2.019-2.357 2-3 1.981-.643 4.679.634 6-1 1.321-1.634.96-2.746 2-4s5.177-3.298 7-3c1.823.298 2.548 1.268 3 3 .452 1.732 1.386 2.729 3 3 1.614.271 1.77.263 4-1s2.965-1.361 4 0c1.035 1.361 1.888 3.363 3 2s4.192-2.275 6-2M480 316s3.515 4.016 5 5c1.485.984 1.981.392 3 2s1.542 2.854 3 3c1.458.146 1.547 1.845 2 0 .453-1.845.189-3.169 1-4 .811-.831 3-1 3-1M457 344s.586-.299 1.456 0c1.232.423 3.032 1.442 4.544 1 2.581-.755 1.799-2.44 4-3s1.084.026 3 1 1.912 1.289 3 0 2.569-2.639 4-4c1.431-1.361 2.026-.205 2-3-.026-2.795.035-4.49 1-5 .965-.51 1.949-1.146 2-3 .051-1.854-1.517-6.002-2-8-.483-1.998.211-4.02 0-5-.211-.98-5.3-8.152-9-9-3.7-.848-2.491 1.21-4 0s-1.966-3.251-4-3c-2.034.251-1.522 1.197-3 0s-3.726-2.26-5-2c-1.274.26-1.179-3.021-1-5 .179-1.979 1.007-1.767 1-4-.007-2.233.631-3.967-1-5s-3.554-1.989-3-4c.554-2.011-.093-4.741 1-6 1.093-1.259 1.541-2.488 1-4-.541-1.512-.093-2.044 0-3s3.02-2.881 4-4c.98-1.119 4-3 4-3M407.231 258.846s-2.509-1.323-5.231.154c-2.722 1.477-4.462 2.091-5 3-.538.909-1.11 1.523-3 0s-1.038-4.637-3-5c-1.962-.363-1.606.203-3-2s-3.022-3.333-4-2c-.978 1.333-.926 1.387-3 2s-2.342-1.381-4 0-2.71 3.771-5 2-4.014-3.029-2-4c2.014-.971 4.45-.165 4-3-.45-2.835-4.062-3.869-2-7 2.062-3.131 2.818-4.005 5-6s4.922-4.437 4-10M427 284s-3.11-.909-3-3c.11-2.091 1.682-2.325 0-4-1.682-1.675-4.014-.949-4-4 .014-3.051-1.582-2.133-2-4-.418-1.867.93-1.573 0-3s-8.238.499-9-2c-.762-2.499.042-2.685-1-4s-1.054-1.869 1-3c2.054-1.131 1.69-1.669 2-3M400 353c.833-.375 3.997.959 5 0 1.538-1.47 4.11-3.258 6-4 1.89-.742 4.894-1.32 7 0s2.364 2.586 5 2c2.636-.586 3.99-.696 5-2 1.01-1.304 5.274-3.292 6-6s.336-7.607 1-9c.664-1.393 3.807-2.138 5-2 1.193.138 2.651 1.08 3 0M443.442 330.049s-2.672-.562-4.442-2.049c-1.181-1.953-3.539-2.517-4-5-.461-2.483-1.134-6.143-3-6-1.866.143-4.573 3.546-5 4-.427.454-.418 2.421-3 2-2.582-.421-5.014-.048-6 0-.986.048-3.64-.736-4-1M391 378s-.522-2.188 0-5 .948-2.283 2-4 2.198-1.785 2-4c-.198-2.215-1.176-2.598 1-4 2.176-1.402 3.95-1.505 4-3 .05-1.495 1.074-3.07 0-5-1.074-1.93-1.863-5.134-1-7 .863-1.866 5.608-4.449 6-7 .392-2.551-.017-1.733 0-5s-.173-3.078 1-5c1.173-1.922 1.702-3.11 2-5 .298-1.89.141-3.454 2-3 1.859.454 2.767 1.264 4 1s3.549-.487 3-3c-.549-2.513-2.546-2.895-3-5-.454-2.105.235-2.928-1-5-1.235-2.072-2.297-4.524-2-7 .297-2.476-1.296-5.901 1-7 2.296-1.099 7.457-2.402 9-4 1.543-1.598 5.771-4.811 6-7 .229-2.189 4.212-1.03 7-1 2.788.03 8.089 1.845 9 0 .911-1.845 3.996-2.719 4-5 .004-2.281.716-5.315 2-6 1.284-.685 4-1 4-1M447 345s-1.16-1.98-1-4c.16-2.02 1.559-2.231 1-4-.559-1.769-4.349-2.889-4-5 .349-2.111 1.996-5.61 3-7 1.004-1.39.528-.018 1-3s.435-2.956 2-4 2.499-1.426 4-4 3.436-6.679 2-8c-1.436-1.321-.345-4.274 0-5M360 294s3.707-1.003 5 0c1.293 1.003 3.326 2.026 4 1 .674-1.026 2.076-1.829 2-4-.076-2.171-.717-3.697 1-4 1.717-.303 2.24 1.185 4 0 1.76-1.185 3.668-1.581 4-3 .332-1.419-.758-2.743 1-3 1.758-.257 2.993-.126 3-1 .007-.874.228-5.834 1-6M394 295s-3.87-2.551-4-5c-.13-2.449.698-3.57 2-5 1.302-1.43 3.796-1.412 2-3-1.796-1.588-3.733-1.255-4-3-.267-1.745-2.379-3.097-4-4s-2.947-3.194-4-5-1.437-5.389-2-6c-.563-.611-2.554-.369-3-2-.446-1.631-1-6-1-6M357 332s2.724 1.754 4 0c1.276-1.754.253-3.207 2-2 1.747 1.207 1.311 1.694 4 2 2.689.306 2.016-1.541 4 0s1.485 2.047 4 2c2.515-.047 7 0 7 0M395 367s-2.838-2.693-6-2c-3.162.693-4.054 2.283-7 2-2.946-.283-1.374-2.053-6-2-4.626.053-7.15-1.205-8 0-.85 1.205-3.342 2.379-6 0s-6.19-4.581-5-7c1.19-2.419-.054-5.405 3-5 3.054.405 3.666.715 4-2 .334-2.715.338-4.005 2-4 1.662.005.802-1.733 2-4s1.554-3.221 4-3c2.446.221 2.738 3.107 4 0s1.538-3.821 3-5c1.462-1.179 2.234.123 3-2s-.094-4.757 2-6c2.094-1.243 2.498-1.301 3-3 .502-1.699 3.815-4.15 4.437-4.56M408 325s-2.766-3.301-6-3c-3.234.301-9.086 1.155-10-1-.914-2.155-1.598-6.885-1-9 .598-2.115.122-8.957 1-12 .878-3.043 2.178-4.301 3-7 .822-2.699-1.302-2.661 2-3 3.302-.339 4.266 1.875 5 0s2.402-2.797 4-4c1.598-1.203 2.434-2.189 4-4 1.566-1.811 1.954-.685 4-4 2.046-3.315 5.09-5.277 6-5M200 324s2.329-3.143 5-4.56c2.671-1.418 1.921-2.214 3-4.44 1.079-2.226-1.015-3.134 4-3 5.015.134 5.609.474 8-2s2.617-2.934 5-2c2.383.934 3.185 3.418 4 0s-.271-4.79 2-5c2.271-.21 2.145 2.258 4 0s-.335-2.974 3-3c3.335-.026 2.697 3.866 5 0s-.959-4.854 4-5c4.959-.146 5.921-1.774 8 0 2.079 1.774 2.929 3.586 5 3 2.071-.586 4.681.874 6 2s2.249 1.418 3 3c.751 1.582-1.231 2.37 2 3 3.231.63 3.697 3.658 5 4 1.303.342 1.321 1.482 4 2 2.679.518 3.609.618 5 3s2.561 4.242 3 6c.439 1.758.025 1.298 1 3s-.639 4.458 1 5c1.639.542 3.209.722 3 3-.209 2.278 0 6 0 6M357 220v12s.05 1.705-2 4-2.206 3.817-2 6c.206 2.183.21 3.129 2 4s2.546.905 3 3c.454 2.095 2 3 2 3M343 271s-.862.849 0-3-1.294-4.567 1-6c2.294-1.433 2.25-.471 4-3s4.106-3.935 6-4c1.894-.065 1.546.913 3 1 1.454.087 1.394 2.009 2-1 .606-3.009.194-2.815 2-4s1.378-.991 3 0 1.69 3.425 3 4c1.31.575 1.746 1.089 3 0M278 299s3.913 2.21 5 3c1.087.79 5 4 5 4s-.279 1.962 2 2c2.279.038 2.137.346 4 0s1.401 2.298 4 2c2.599-.298 1.177-.758 4-2s2.441-1.094 5-2c2.559-.906 4.657 1.194 7 2s6.53 0 6.53 0M273 307s3.057-.766 4-3c.943-2.234.033-1.798 1-4s.057-3.99 0-7M301 273s1.014-1.634 3-2c1.986-.366 2.911-1.243 4-2 1.089-.757 2.646-.593 4-2s2.771-2.845 3-4c.229-1.155.479-1.871 1-3s1.604-1.575 2-3c.396-1.425.7-3.279 1-4 .3-.721-.107-2.751 0-5s.472-1.489 1-3 .003-1.213 0-2c-.005-1.362.768-2.705.768-2.705M289 265s1.833.454 2-1c.167-1.454 1.576-1.203 1-3-.576-1.797-.717-.989-1-3-.283-2.011-1.967-3.675 0-4 1.967-.325 3.462.253 4-1 .538-1.253.177-1.669 1-4s.734-2.191 2-3c1.266-.809 1.891-2.756 1-4-.891-1.244.256-1.413 1-3s2.484-2.814 2-4 .363-1.664 1-3 1.756-1.772 2-3 .021-2.458 1-3c.979-.542 1.357-1.874 1.558-1.895M295.692 215s.592.662 2.308 0c1.716-.662 2.227-.831 3-2 .773-1.169 2.078-2.774 3-3 .922-.226.628-.303 1-2s-.358-1.796 2-3 3.464-.796 5-1c1.536-.204 1.893.647 3-1s1.029-1.782 2-3c.971-1.218.908.375 2-1s1.165-1.669 1-3c-.165-1.331 0-4 0-4M272 248s-1.017-2.538 0-4c1.017-1.462 1.21-1.597 1-3-.21-1.403-.772-1.733-1-4-.228-2.267-1.356-2.303 0-5s1.4-2.665 2-5c.6-2.335 2.608-1.253 2-4-.608-2.747-2.148-2.276-2-5 .148-2.724.495-4.222 1-5 .505-.778 1.721-1.792 1-4-.721-2.208-.333-3.53 1-4 1.333-.47 2.631.542 3-2 .369-2.542 1.029-4.594 2-6 .971-1.406 2.011.8 2-2-.011-2.8-1.12-6.639 0-8 1.12-1.361-.215-2.114 0-4 .215-1.886 0-3 0-3M319 230l-5-2s.559-.778-2-2-2.839.919-4-1-.577-3.027-2-4c-1.423-.973-3.939-.235-5-1s-.337-2.521-2-3c-1.663-.479-2.64.516-3-1-.36-1.516-.699-2.752-2-4-1.301-1.248-.926-2.566-1-4-.074-1.434 3.581-2.078 0-3-3.581-.922-6.989.357-8 0-1.011-.357-1.256 1.113-3 1-1.744-.113-1.935-.66-2.941-1.356M357 230s-5.086-2.326-5-4c.086-1.674.968-2.778-1-2s-1.091 2.43-3 2c-1.909-.43-3.186 1.407-3-2 .186-3.407.791-5.765-2-6-2.791-.235-4.725-.86-8-1-3.275-.14-3.481 1.163-4 3-.519 1.837-1.635 4.353-3 4-1.365-.353-4.979.733-6 2s-3.282 2.095-3 4c.282 1.905.134 1.041 1 3s.492 1.969 0 4c-.492 2.031 1.437 4.2 2 6 .563 1.8 4.537 8.811 6 10s-.142 1.87 1 3 2.786-1.922 4 0 .185 3.589 2 4c1.815.411 2.261-.673 3 1 .739 1.673.66 3.083 2 3 1.34-.083 3 0 3 0M238 222s-2.734-1.414-2-3 1.135-1.596 1-3 .329-2.63-2-3c-2.329-.37-3.246-.252-4 1s-2.462 4.717-4 4c-1.538-.717-6.464-2.926-6-5 .464-2.074 1.373-3.501 2-4 .627-.499.948-2.157 2-1s2.13 2.909 3 2c.87-.909 1.327-1.749 1-3-.327-1.251-.79-1.504-2-2s-2.331.363-2-2c.331-2.363.358-1.902 1-4s1.196-2.067 2-3c.804-.933.803-1.79 1-3 .197-1.21 0-3 0-3M105.658 234s1.23-.354 2.342-1 .273-1.263 3-1c2.727.263 5.291 2.551 6 1 .709-1.551 1.943-1.915 3-3s3.866-1.738 4-2M136 241s-2.107-2.792-4-4c-1.893-1.208-4.578-3.906-5-5-.422-1.094-2.772-1.304-3-5-.228-3.696.952-4.422 0-7-.952-2.578-1.609-2.354-3-5s-1.451-4.82-4-5c-2.549-.18-9.035-3.947-10-6M92 312s-1.122-3.464-3-4-2.945-.116-3-2c-.055-1.884-.507-1.664-2-2-1.493-.336-1.421-1.139-2-3s.018-2.148-2-3c-2.018-.852-2.624-.976-3-2-.376-1.024 0-3 0-3M105 354s.937-4.549-2-5c-2.937-.451-2.167 2.351-4 0-1.833-2.351-2.8-3.947-2-6 .8-2.053-.185-4.88-2-6s-5.651-.527-5-2c.651-1.473 2.082-1.088 2-3-.082-1.912-3.556-2.649-2-4s2.634-.577 3-3c.366-2.423.901-3.414 0-5-.901-1.586-4-6-4-6M104 264s.697 1.653 1 3c.303 1.347 1.805 1.732 3 2s2.348.455 3 2c.652 1.545 1.457 4.666 3 5 1.543.334 2.565 1.919 4 0s2.469-1.931 4-3c1.531-1.069 1.909-.063 3-2s3.066-1.865 3-4c-.066-2.135-1.675-4.643 0-6 1.675-1.357 2.175-1.263 3-3 .825-1.737 4.669-2.625 5-3M162 309s-.449-2.675-2-4c-1.551-1.325-1.883-.627-1-2s2.346-4.326 1-5c-1.346-.674-6.558 1.746-6-1 .558-2.746 2.364-3.567 1-5-1.364-1.433-4.799-1.796-6-1-1.201.796-2.963 1.969-5 0s-2.686-3.212-4-3c-1.314.212.188-2.785 0-4-.188-1.215.031-2.123-1-3-1.031-.877-1.788-2.924-1-4s2.543-2.467 1-3c-1.543-.533-4-1-4-1M139 238s6.17 1.82 6 4c-.17 2.18-1.571 2.543 0 4 1.571 1.457 2.279.447 3 3 .721 2.553.514 4.785 2 5 1.486.215 1.292-.318 4 0s1.81-2.263 4 0 6 5 6 5M64 328s.277-1.54 2-3c1.723-1.46.537-2.342 2-4s3.212.471 5-3c1.788-3.471-.348-4.071 2-5 2.348-.929 3.249.929 5 0s-.926-3.379 2-2 3.593 1.7 5 2c1.407.3 1.009 1.748 3 0s2.425.001 4-2c1.575-2.001 2.431-3.535 4-2 1.569 1.535 3.721 4.103 5 2 1.279-2.103 1.751-2.006 3-4 1.249-1.994.45-.217 3-3s3.962-4.097 3-6c-.962-1.903-1.134-8.212 1-9 2.134-.788 2.951-1.369 5-2s4.831-1.273 6-3c1.169-1.727 2.729-2.791 2-4-.729-1.209-1.217-2.798 0-4s.789-1.822 3-1c2.211.822 2.82 1.383 4 1 1.18-.383 1.284 2.581 2-1s-2.969-5.244 0-6c2.969-.756 3.188 1.009 4-1 .812-2.009.061-5.438 1-7 .939-1.562 1.007-1.571 0-3s-4.999-1.607-5-5c-.001-3.393-2.15-8.982 0-11 2.15-2.018 4.314-2.555 4-5-.314-2.445.826-7.158 0-9-.826-1.842-2.764-3.707-2-6 .764-2.293 1.549-4.587 3-6 1.451-1.413 1.989-1.617 3-3s-.342-4.425 1-7 6-4 6-4M177 220s3.35-1.842 5-3 4.124-1.858 6-2c1.876-.142 4.651-.844 5-2 .349-1.156.767-2.516 2-2s2.18 2.435 4 2c1.82-.435 3.789.27 5-1 1.211-1.27 1.577-1.713 3-1 1.423.713 2.252 3.452 4 3 1.748-.452.91-1.844 3-2 2.09-.156 2.436-.958 4 0s3 1 3 1M237 214s1.416.287 3-1 2.222-2.912 4-4 2.224-1.108 4-1c1.776.108 2.062.12 3-1 .938-1.12 1.785-1.142 3-1 1.215.142 4.197 1.433 5 2 .803.567 1.724 2.843 3 2s.726-.895 3-1c2.274-.105 2.318-.32 4 1s2.287 1.697 3 2c.713.303 3 1 3 1"/></g><path d="M410.599 318.105c-2.343-3.815-3.694-8.304-3.694-13.105 0-13.85 11.245-25.095 25.095-25.095s25.095 11.245 25.095 25.095c0 10.301-6.22 19.16-15.106 23.025 2.914 4.267 4.618 9.423 4.618 14.975 0 14.685-11.922 26.607-26.607 26.607-14.685 0-26.607-11.922-26.607-26.607 0-11.376 7.155-21.094 17.206-24.895z" fill="#f3ff00" fill-opacity=".5"/><path d="M380 312s5.965-3.543 12.309-7.454c4.833-2.978 6.624-5.856 12.691-4.546 5.418 1.17 11.142 12.535 16 18 1.295 1.457 7.689 8.338 11.678 11.507 6.356 5.048 10.668 8.317 14.322 8.493 9.461.455 10.061 1.678 13 3 4.917 2.212 5.683 10.419 10.483 20.619 3.504 7.446 7.302 16.342 10.517 18.381 3.504 2.223 12.179 4.078 21.142 4.236 10.528.186 22.452-2.588 25.858-3.236 11.487-2.184 21.207 2.914 25 5 3.793 2.086 13.167 6.685 20 5 6.833-1.685 24.516-14.009 28-16" stroke="#00ff01" stroke-opacity=".849" stroke-width="7" fill="none"/><g><circle cx="600.886" cy="375.259" r="7.941" fill="#ff0001"/><g font-family="'Arial-BoldMT', 'Arial', sans-serif" font-weight="700" font-size="12"><text x="601.164" y="375.315" fill="none" transform="translate(-3.615 3.967)">1</text><text x="601.164" y="375.315" fill="#fff" transform="translate(-3.615 3.967)">1</text></g><g transform="translate(-196.114 -77.035)"><circle cx="600.886" cy="375.259" r="7.941" fill="#ff0001"/><text x="601.164" y="375.315" font-family="'Arial-BoldMT', 'Arial', sans-serif" font-weight="700" font-size="12" fill="#fff" transform="translate(-3.615 3.967)">2</text></g><g transform="translate(-220.485 -63.109)"><circle cx="600.886" cy="375.259" r="7.941" fill="#ff0001"/><text x="601.164" y="375.315" font-family="'Arial-BoldMT', 'Arial', sans-serif" font-weight="700" font-size="12" fill="#fff" transform="translate(-3.615 3.967)">3</text></g></g><g font-family="'Arial-BoldMT', 'Arial', sans-serif" font-weight="700" font-size="12"><text x="57.468" y="311.825" fill="none" transform="translate(-2 5)">1</text><text x="57.468" y="311.825" transform="translate(-2 5)">1</text><text x="57.468" y="311.825" fill="none" transform="translate(20.912 35.208)">2</text><text x="57.468" y="311.825" transform="translate(20.912 35.208)">2</text><text x="57.468" y="311.825" fill="none" transform="translate(38.832 -18.296)">3</text><text x="57.468" y="311.825" transform="translate(38.832 -18.296)">3</text><text x="57.468" y="311.825" fill="none" transform="translate(61.36 3.744)">4</text><text x="57.468" y="311.825" transform="translate(61.36 3.744)">4</text><text x="57.468" y="311.825" fill="none" transform="translate(57.52 -56.44)">5</text><text x="57.468" y="311.825" transform="translate(57.52 -56.44)">5</text><text x="57.468" y="311.825" fill="none" transform="translate(91.696 -35.192)">6</text><text x="57.468" y="311.825" transform="translate(91.696 -35.192)">6</text><text x="57.468" y="311.825" fill="none" transform="translate(39.216 -93.816)">7</text><text x="57.468" y="311.825" transform="translate(39.216 -93.816)">7</text><text x="57.468" y="311.825" fill="none" transform="translate(69.808 -95.096)">8</text><text x="57.468" y="311.825" transform="translate(69.808 -95.096)">8</text><text x="57.468" y="311.825" fill="none" transform="translate(87.808 -79.096)">9</text><text x="57.468" y="311.825" transform="translate(87.808 -79.096)">9</text><text x="57.468" y="311.825" fill="none" transform="translate(163.272 -18.04)">10</text><text x="57.468" y="311.825" transform="translate(163.272 -18.04)">10</text><text x="57.468" y="311.825" fill="none" transform="translate(191.432 -.76)">1<tspan x="63.48" y="311.825">1</tspan></text><text x="57.468" y="311.825" transform="translate(191.432 -.76)">1<tspan x="63.48" y="311.825">1</tspan></text><text x="57.468" y="311.825" fill="none" transform="translate(231.752 -12.152)">12</text><text x="57.468" y="311.825" transform="translate(231.752 -12.152)">12</text><text x="57.468" y="311.825" fill="none" transform="translate(240.456 12.808)">13</text><text x="57.468" y="311.825" transform="translate(240.456 12.808)">13</text><text x="57.468" y="311.825" fill="none" transform="translate(273.736 2.312)">14</text><text x="57.468" y="311.825" transform="translate(273.736 2.312)">14</text><text x="57.468" y="311.825" fill="none" transform="translate(130.696 -106.096)">15</text><text x="57.468" y="311.825" transform="translate(130.696 -106.096)">15</text><text x="57.468" y="311.825" fill="none" transform="translate(151.56 -82.544)">16</text><text x="57.468" y="311.825" transform="translate(151.56 -82.544)">16</text><text x="57.468" y="311.825" fill="none" transform="translate(199.432 -110.32)">17</text><text x="57.468" y="311.825" transform="translate(199.432 -110.32)">17</text><text x="57.468" y="311.825" fill="none" transform="translate(194.824 -84.464)">18</text><text x="57.468" y="311.825" transform="translate(194.824 -84.464)">18</text><text x="57.468" y="311.825" fill="none" transform="translate(233.736 -113.136)">19</text><text x="57.468" y="311.825" transform="translate(233.736 -113.136)">19</text><text x="57.468" y="311.825" fill="none" transform="translate(224.904 -78.832)">20</text><text x="57.468" y="311.825" transform="translate(224.904 -78.832)">20</text><text x="57.468" y="311.825" fill="none" transform="translate(258.056 -96.752)">21</text><text x="57.468" y="311.825" transform="translate(258.056 -96.752)">21</text><text x="57.468" y="311.825" fill="none" transform="translate(243.848 -57.072)">22</text><text x="57.468" y="311.825" transform="translate(243.848 -57.072)">22</text><text x="57.468" y="311.825" fill="none" transform="translate(263.176 -40.176)">23</text><text x="57.468" y="311.825" transform="translate(263.176 -40.176)">23</text><text x="57.468" y="311.825" fill="none" transform="translate(272.904 -70.256)">24</text><text x="57.468" y="311.825" transform="translate(272.904 -70.256)">24</text><text x="57.468" y="311.825" fill="none" transform="translate(302.344 -75.376)">25</text><text x="57.468" y="311.825" transform="translate(302.344 -75.376)">25</text><text x="57.468" y="311.825" fill="none" transform="translate(301.192 -38.128)">26</text><text x="57.468" y="311.825" transform="translate(301.192 -38.128)">26</text><text x="57.468" y="311.825" fill="none" transform="translate(324.523 -64.008)">27</text><text x="57.468" y="311.825" transform="translate(324.523 -64.008)">27</text><text x="57.468" y="311.825" fill="none" transform="translate(337.144 -35.961)">28</text><text x="57.468" y="311.825" transform="translate(337.144 -35.961)">28</text><text x="57.468" y="311.825" fill="none" transform="translate(316.873 -11.61)">29</text><text x="57.468" y="311.825" transform="translate(316.873 -11.61)">29</text><text x="57.468" y="311.825" fill="none" transform="translate(303.104 69.219)">30</text><text x="57.468" y="311.825" transform="translate(303.104 69.219)">30</text><text x="57.468" y="311.825" fill="none" transform="translate(321.208 41.298)">32</text><text x="57.468" y="311.825" transform="translate(321.208 41.298)">32</text><text x="57.468" y="311.825" fill="none" transform="translate(337.654 4.581)">32</text><text x="57.468" y="311.825" transform="translate(337.654 4.581)">32</text><text x="57.468" y="311.825" fill="none" transform="translate(349.128 56.087)">36</text><text x="57.468" y="311.825" transform="translate(349.128 56.087)">36</text><text x="57.468" y="311.825" fill="none" transform="translate(356.013 27.529)">35</text><text x="57.468" y="311.825" transform="translate(356.013 27.529)">35</text><text x="57.468" y="311.825" fill="none" transform="translate(368.889 -4.216)">34</text><text x="57.468" y="311.825" transform="translate(368.889 -4.216)">34</text><text x="57.468" y="311.825" fill="none" transform="translate(370.674 -35.068)">33</text><text x="57.468" y="311.825" transform="translate(370.674 -35.068)">33</text><text x="57.468" y="311.825" fill="none" transform="translate(405.989 -56.996)">39</text><text x="57.468" y="311.825" transform="translate(405.989 -56.996)">39</text><text x="57.468" y="311.825" fill="none" transform="translate(431.104 -66.941)">40</text><text x="57.468" y="311.825" transform="translate(431.104 -66.941)">40</text><text x="57.468" y="311.825" fill="none" transform="translate(461.104 -106.941)">41</text><text x="57.468" y="311.825" transform="translate(461.104 -106.941)">41</text><text x="57.468" y="311.825" fill="none" transform="translate(463.104 -58.941)">42</text><text x="57.468" y="311.825" transform="translate(463.104 -58.941)">42</text><text x="57.468" y="311.825" fill="none" transform="translate(446.104 -24.941)">43</text><text x="57.468" y="311.825" transform="translate(446.104 -24.941)">43</text><text x="57.468" y="311.825" fill="none" transform="translate(491.104 -16.941)">45</text><text x="57.468" y="311.825" transform="translate(491.104 -16.941)">45</text><text x="57.468" y="311.825" fill="none" transform="translate(425.104 35.059)">44</text><text x="57.468" y="311.825" transform="translate(425.104 35.059)">44</text><text x="57.468" y="311.825" fill="none" transform="translate(430.841 65.657)">46</text><text x="57.468" y="311.825" transform="translate(430.841 65.657)">46</text><text x="57.468" y="311.825" fill="none" transform="translate(455.829 62.98)">47</text><text x="57.468" y="311.825" transform="translate(455.829 62.98)">47</text><text x="57.468" y="311.825" fill="none" transform="translate(482.22 35.187)">48</text><text x="57.468" y="311.825" transform="translate(482.22 35.187)">48</text><text x="57.468" y="311.825" fill="none" transform="translate(476.1 96.637)">49</text><text x="57.468" y="311.825" transform="translate(476.1 96.637)">49</text><text x="57.468" y="311.825" fill="none" transform="translate(508.993 69.992)">50</text><text x="57.468" y="311.825" transform="translate(508.993 69.992)">50</text><text x="57.468" y="311.825" fill="none" transform="translate(525.184 40.031)">51</text><text x="57.468" y="311.825" transform="translate(525.184 40.031)">51</text><text x="57.468" y="311.825" fill="none" transform="translate(561.519 86.31)">52</text><text x="57.468" y="311.825" transform="translate(561.519 86.31)">52</text><text x="57.468" y="311.825" fill="none" transform="translate(539.718 113.338)">53</text><text x="57.468" y="311.825" transform="translate(539.718 113.338)">53</text><text x="57.468" y="311.825" fill="none" transform="translate(580.26 45.258)">54</text><text x="57.468" y="311.825" transform="translate(580.26 45.258)">54</text><text x="57.468" y="311.825" fill="none" transform="translate(578.475 -.765)">55</text><text x="57.468" y="311.825" transform="translate(578.475 -.765)">55</text><text x="57.468" y="311.825" fill="none" transform="translate(543.415 -4.59)">56</text><text x="57.468" y="311.825" transform="translate(543.415 -4.59)">56</text><text x="57.468" y="311.825" fill="none" transform="translate(557.566 -54.694)">57</text><text x="57.468" y="311.825" transform="translate(557.566 -54.694)">57</text><text x="57.468" y="311.825" fill="none" transform="translate(575.16 -122.008)">58</text><text x="57.468" y="311.825" transform="translate(575.16 -122.008)">58</text><text x="57.468" y="311.825" fill="none" transform="translate(671.288 -126.598)">59</text><text x="57.468" y="311.825" transform="translate(671.288 -126.598)">59</text><text x="57.468" y="311.825" fill="none" transform="translate(697.55 -84.144)">60</text><text x="57.468" y="311.825" transform="translate(697.55 -84.144)">60</text><text x="57.468" y="311.825" fill="none" transform="translate(406.499 -19.132)">38</text><text x="57.468" y="311.825" transform="translate(406.499 -19.132)">38</text><text x="57.468" y="311.825" fill="none" transform="translate(398.339 19.88)">37</text><text x="57.468" y="311.825" transform="translate(398.339 19.88)">37</text></g></svg>