<svg viewBox="0 0 754 503" xmlns="http://www.w3.org/2000/svg" fill-rule="evenodd" clip-rule="evenodd"><g><path fill="none" d="M0 0h753.437v502.057h-753.437z"/><g><path d="M327.43 45.337c-8.889 15.194-16.809 33.416-23.758 54.67-6.949 21.253-14.061 42.548-21.334 63.883-7.274 21.334-15.314 41.133-24.122 59.397-8.81 18.264-19.436 32.003-31.88 41.214-1.94-4.686-7.88-13.94-17.819-27.758-9.941-13.82-13.052-23.396-9.334-28.729 2.1 4.363 5.413 7.798 9.939 10.303 4.526 2.505 8.729 4.97 12.608 7.394 16.323-19.555 29.82-48.972 40.486-88.246 5.334-19.557 10.142-37.256 14.425-53.094 4.284-15.84 7.96-29.739 11.032-41.7-16.325-2.586-32.811-.079-49.458 7.517s-30.951 16.485-42.91 26.669c11.313 2.908 18.466 8.323 21.455 16.242 2.989 7.92 4.081 16.123 3.272 24.608-.807 8.486-2.464 16.042-4.969 22.667-2.507 6.627-3.596 10.022-3.274 10.184 2.748 2.424 5.213 4.727 7.394 6.908 2.183 2.183 4.808 4.243 7.879 6.182 5.819 3.719 6.305 9.537 1.455 17.456-4.363 6.789-9.535 12.446-15.516 16.971-5.981 4.526-14.951 2.343-26.91-6.546-10.344 11.315-23.839 22.143-40.488 32.487-16.647 10.344-36.607 15.192-59.881 14.545 16.325-5.332 30.668-15.475 43.033-30.425 12.365-14.951 22.748-29.456 31.153-43.517-5.494-3.07-12.849-8.041-22.062-14.911-9.211-6.868-23.758-10.061-43.638-9.575 22.303-11.153 40.567-16.081 54.79-14.788 14.223 1.293 24.002 3.879 29.336 7.758 5.819-7.758 9.939-15.356 12.365-22.79 2.424-7.436 1.94-16.647-1.455-27.637-3.717 2.424-8.405 3.919-14.061 4.484-5.658.565-9.941-1.172-12.849-5.212-7.436-1.94-13.537-6.101-18.305-12.487-4.767-6.384-8.768-12.808-12.001-19.273 4.203-4.688 12.93-7.677 26.184-8.97 20.85-2.102 42.588-4.405 65.215-6.91 22.628-2.505 44.365-4.727 65.215-6.667 1.94-4.688 5.091-7.839 9.456-9.456 4.363-1.615 6.544-3.151 6.544-4.607 4.526 2.426 9.739 6.829 15.638 13.213 5.9 6.386 8.282 12.568 7.151 18.547zm48.487 222.074c14.061 9.535 22.79 21.981 26.184 37.335.646 2.102-3.193 4.324-11.516 6.667-8.323 2.345-13.294 3.515-14.909 3.515-12.446-5.332-20.204-12.121-23.274-20.364-4.203-11.153-10.385-18.385-18.547-21.698-8.163-3.314-13.778-8.849-16.85-16.607 9.213 0 19.355.565 30.427 1.696 11.072 1.133 20.566 4.284 28.486 9.456zm-189.828 144.251c9.213 8.242 23.596 18.586 43.153 31.032 19.557 12.444 36.042 18.748 49.458 18.909 16.323.486 31.435-.929 45.334-4.243 13.901-3.312 24.567-5.615 32.003-6.908-10.828-11.961-19.879-28.446-27.153-49.458-7.274-21.01-14.304-40.002-21.091-56.973 1.131 2.264 4.686 8.323 10.666 18.183 5.981 9.86 13.254 20.809 21.819 32.851 8.567 12.04 17.942 23.839 28.124 35.395 10.182 11.556 20.123 20.002 29.82 25.334-6.789 10.506-15.435 16.244-25.941 17.214-10.506.969-21.093 2.989-31.76 6.06-16 5.172-34.911 8.648-56.73 10.425-25.213-.807-44.771-5.332-58.671-13.576-13.576-7.918-25.698-15.718-36.364-23.395-10.668-7.677-21.416-17.495-32.244-29.456-15.356-16.809-24.729-40.528-28.124-71.155-3.395-30.629-11.394-53.458-24.002-68.489 19.233 12.121 33.78 33.173 43.64 63.155 9.858 29.98 22.546 51.679 38.062 65.095zm67.398-55.034c-3.395 6.303-9.82 6.182-19.274-.364s-15.314-11.516-17.576-14.911c-2.91-4.201-8.891-15.757-17.942-34.668s-13.333-28.365-12.849-28.365c21.981 9.697 41.174 22.021 57.58 36.971 16.404 14.951 19.759 28.729 10.061 41.336zm-212.861 106.914c-7.274 1.455-11.637-1.05-13.092-7.515-1.777-8.727-3.96-17.293-6.546-25.698-2.586-8.405-3.151-17.293-1.696-26.669 1.777-3.555 4.526-6.062 8.242-7.515 2.748-5.496 7.556-18.466 14.425-38.912 6.87-20.445 9.092-32.849 6.667-37.214 5.334 2.426 8.891 9.618 10.668 21.578 4.201 26.506 5.656 50.063 4.363 70.67-1.293 20.607-8.97 37.699-23.031 51.275z"/><path d="M599.445 26.185c5.496 7.434 7.153 19.84 4.97 37.214-2.181 17.374-3.515 30.668-4 39.881 13.576-2.91 24.769-7.839 33.578-14.788 8.808-6.951 16.04 2.343 21.697 27.879.809-3.717 2.667-6.868 5.577-9.454 2.908-2.586 4.363-5.9 4.363-9.941-4.688-1.94-5.091-4.526-1.212-7.758 3.879-3.232 7.03-5.091 9.454-5.575 2.426 8.729 7.436 14.385 15.032 16.971 7.596 2.586 9.051 9.132 4.363 19.636-5.819 12.77-12.525 25.174-20.123 37.214-7.596 12.042-15.03 24.043-22.303 36.002 11.313 0 20.809.728 28.486 2.183 7.679 1.455 14.992-1.131 21.941-7.758 1.94-1.617 7.274-.565 16 3.151 8.729 4.041 14.304 12.284 16.728 24.729 2.426 12.444 1.455 22.788-2.908 31.032-16.971-6.627-33.739-12.042-50.306-16.244-16.566-4.203-34.628-4.85-54.185-1.94-12.121 15.032-24.081 30.506-35.88 46.426-11.799 15.921-23.758 31.235-35.882 45.943 3.557 0 6.425.929 8.608 2.788 2.181 1.858 4.808 3.434 7.879 4.727 0 4.526.565 9.051 1.696 13.576 1.133 4.526.565 8.891-1.696 13.092 0 13.576.04 27.193.121 40.85.081 13.658-.283 27.113-1.091 40.366.971 1.617 9.213.646 24.729-2.908 15.516-3.557 24.81-5.981 27.881-7.274.809 1.617 3.879 3.151 9.213 4.607.162-20.041.121-41.174-.121-63.397-.243-22.224-.445-43.438-.607-63.64-4.85 1.94-9.98 4-15.395 6.181-5.413 2.183-10.627 3.92-15.637 5.213-4.85 6.141-10.142 8.648-15.88 7.515-5.737-1.131-11.839-1.696-18.304-1.696-4.363-3.557-4.769-6.062-1.212-7.515 3.555-1.455 5.979-3.8 7.272-7.032 8.567-5.819 17.699-10.384 27.396-13.697 9.697-3.314 19.152-7.637 28.365-12.97 5.172 1.453 10.223 3.474 15.152 6.06 4.931 2.586 10.061 4.284 15.395 5.091 3.07 2.586 4.889 10.911 5.455 24.972.565 14.061.484 30.061-.243 48.003-.726 17.94-1.736 35.92-3.029 53.942-1.293 18.021-2.102 32.203-2.426 42.547 1.293 4.203.203 7.758-3.272 10.668-3.476 2.908-4.646 8.727-3.515 17.456-8.889-1.94-12.849-6.748-11.88-14.425.971-7.679-2.586-12.082-10.666-13.213-8.729-3.395-17.374-3.517-25.941-.364-8.567 3.151-16.809 6.182-24.729 9.091-5.656 2.102-9.779 1.131-12.365-2.908-2.586-4.041-5.9-7.193-9.939-9.456-4.85-3.879-7.718-10.02-8.608-18.424-.888-8.405-2.464-15.516-4.727-21.334 1.293-9.213 2.788-23.839 4.486-43.881 1.696-20.041.524-33.861-3.515-41.457-25.053 22.465-44.164 37.335-57.337 44.608-13.173 7.272-34.466 15.597-63.883 24.97 27.962-23.758 54.832-48.406 80.611-73.944 25.779-25.536 50.387-54.871 73.822-88.003-14.87 1.777-34.264 10.222-58.185 25.334-23.921 15.111-39.031 25.172-45.336 30.184-7.111-1.133-14.747-3.355-22.91-6.668-8.161-3.312-12.161-8.444-12.001-15.394 0-6.789 6.425-13.82 19.274-21.093 12.849-7.272 27.153-14.061 42.912-20.364 15.757-6.303 30.668-11.718 44.729-16.244s22.384-7.434 24.97-8.727c-1.131-7.111-1.576-14.79-1.333-23.033.243-8.242.364-16 .364-23.274-3.395 2.102-6.991 3.92-10.789 5.455-3.798 1.536-7.394 1.091-10.789-1.333-6.465-4.041-13.011-8.284-19.636-12.728-6.627-4.444-12.284-9.818-16.971-16.123 9.213-5.494 19.152-9.697 29.82-12.606 10.666-2.91 21.01-6.789 31.032-11.637-.162-6.789.484-22.143 1.94-46.064 1.455-23.921-2.183-36.366-10.909-37.335-.809-2.91.241-5.455 3.151-7.637 2.908-2.181 4.929-4.727 6.06-7.636 4.85 1.777 9.254 4.201 13.214 7.272 3.958 3.072 8.606 5.091 13.939 6.062zm44.852 112.975c-7.92 1.455-15.637 3.151-23.153 5.091-7.515 1.94-14.909 4.607-22.183 8.001-.646 7.274-1.333 15.273-2.06 24.002-.728 8.727-1.172 16.809-1.334 24.243 2.264-.969 6.87-1.94 13.82-2.908 6.789-8.567 12.647-18.183 17.576-28.851 4.931-10.666 10.708-20.526 17.335-29.577zm-16.244 224.741c.484 13.576-4.201 17.778-14.061 12.606-9.86-5.172-22.062-3.717-36.607 4.363 3.555-5.656 7.515-10.546 11.878-14.668 4.363-4.12 7.596-7.394 9.697-9.818 3.557-4.041 9.213-5.091 16.971-3.151 7.758 1.94 11.799 5.496 12.121 10.668z"/></g></g></svg>