<svg viewBox="0 0 800 560" xmlns="http://www.w3.org/2000/svg" fill-rule="evenodd" clip-rule="evenodd"><g><path fill="none" d="M0 0h800v560h-800z"/><g><text x="391.642" y="57.853" font-family="'Arial-BoldItalicMT', 'Arial', sans-serif" font-weight="700" font-style="italic" font-size="36" transform="translate(-77.321 8.358)">taĳutsu</text><g><text x="397.472" y="57.853" font-family="'Arial-BoldItalicMT', 'Arial', sans-serif" font-weight="700" font-style="italic" font-size="24" fill="none" transform="matrix(.999 0 0 .999 -301.613 63.602)">taihen jutsu</text><text x="391.642" y="74.376" font-family="'ArialMT', 'Arial', sans-serif" font-size="16" fill="none" transform="matrix(.999 0 0 .999 -301.613 63.602)">Körperbewegungen</text><text x="397.472" y="57.853" font-family="'Arial-BoldItalicMT', 'Arial', sans-serif" font-weight="700" font-style="italic" font-size="24" transform="matrix(.999 0 0 .999 -301.613 63.602)">taihenjutsu</text><text x="391.642" y="74.376" font-family="'ArialMT', 'Arial', sans-serif" font-size="16" transform="matrix(.999 0 0 .999 -301.613 63.602)">Körperbewegungen</text><text x="440.468" y="57.853" font-family="'Arial-BoldItalicMT', 'Arial', sans-serif" font-weight="700" font-style="italic" font-size="18" transform="matrix(.999 0 0 .999 -301.613 116.335)">tachi</text><text x="423.665" y="74.376" font-family="'ArialMT', 'Arial', sans-serif" font-size="16" transform="matrix(.999 0 0 .999 -301.613 116.335)">Stellungen</text><text x="433.45" y="57.853" font-family="'Arial-BoldItalicMT', 'Arial', sans-serif" font-weight="700" font-style="italic" font-size="18" transform="matrix(.999 0 0 .999 -301.613 169.069)">kamae</text><text x="425.001" y="74.376" font-family="'ArialMT', 'Arial', sans-serif" font-size="16" transform="matrix(.999 0 0 .999 -301.613 169.069)">Haltungen</text><text x="435.463" y="57.853" font-family="'Arial-BoldItalicMT', 'Arial', sans-serif" font-weight="700" font-style="italic" font-size="18" transform="matrix(.999 0 0 .999 -301.613 221.221)">ukemi</text><text x="439.685" y="74.376" font-family="'ArialMT', 'Arial', sans-serif" font-size="16" transform="matrix(.999 0 0 .999 -301.613 221.221)">Fallen</text><text x="435.463" y="57.853" font-family="'Arial-BoldItalicMT', 'Arial', sans-serif" font-weight="700" font-style="italic" font-size="18" transform="matrix(.999 0 0 .999 -301.613 273.178)">kaiten</text><text x="432.122" y="74.376" font-family="'ArialMT', 'Arial', sans-serif" font-size="16" transform="matrix(.999 0 0 .999 -301.613 273.178)">Abrollen</text><text x="444.981" y="57.853" font-family="'Arial-BoldItalicMT', 'Arial', sans-serif" font-weight="700" font-style="italic" font-size="18" transform="matrix(.999 0 0 .999 -301.613 326.007)">tobi</text><text x="429.45" y="74.376" font-family="'ArialMT', 'Arial', sans-serif" font-size="16" transform="matrix(.999 0 0 .999 -301.613 326.007)">Springen</text><text x="433.454" y="57.853" font-family="'Arial-BoldItalicMT', 'Arial', sans-serif" font-weight="700" font-style="italic" font-size="18" transform="matrix(.999 0 0 .999 -301.613 378.741)">sabaki</text><text x="413.439" y="74.376" font-family="'ArialMT', 'Arial', sans-serif" font-size="16" transform="matrix(.999 0 0 .999 -301.613 378.741)">Sichbewege</text><text x="500.611" y="74.376" font-family="'ArialMT', 'Arial', sans-serif" font-size="16" transform="matrix(.999 0 0 .999 -301.613 378.741)">n</text><text x="417.977" y="57.853" font-family="'Arial-BoldItalicMT', 'Arial', sans-serif" font-weight="700" font-style="italic" font-size="18" transform="matrix(.999 0 0 .999 -301.613 431.474)">shinobi-iri</text><text x="402.767" y="74.376" font-family="'ArialMT', 'Arial', sans-serif" font-size="16" transform="matrix(.999 0 0 .999 -301.613 431.474)">Leises Bewegen</text><g><path d="M157.97 145.902h1.993v9.989h-1.993zM157.97 198.984h1.993v9.989h-1.993zM157.97 251.964h1.993v9.989h-1.993zM157.97 301.354h1.993v9.989h-1.993zM157.97 355.334h1.993v9.989h-1.993zM157.97 408.315h1.993v9.989h-1.993zM157.97 460.629h1.993v9.989h-1.993z"/></g></g><g><text x="412.98" y="57.853" font-family="'Arial-BoldItalicMT', 'Arial', sans-serif" font-weight="700" font-style="italic" font-size="18" transform="matrix(.999 0 0 .999 -88.941 116.335)">koppōjutsu</text><text x="407.802" y="74.376" font-family="'ArialMT', 'Arial', sans-serif" font-size="16" transform="matrix(.999 0 0 .999 -88.941 116.335)">Knocheangrif<tspan x="501.802px 506.247px" y="74.376px 74.376px">fe</tspan></text><text x="416.465" y="57.853" font-family="'Arial-BoldItalicMT', 'Arial', sans-serif" font-weight="700" font-style="italic" font-size="18" transform="matrix(.999 0 0 .999 -88.941 169.069)">koshĳutsu</text><text x="366.904" y="74.376" font-family="'ArialMT', 'Arial', sans-serif" font-size="16" transform="matrix(.999 0 0 .999 -88.941 169.069)">Organ- und Muskelangrif<tspan x="542.7px 547.146px" y="74.376px 74.376px">fe</tspan></text><text x="416.452" y="57.853" font-family="'Arial-BoldItalicMT', 'Arial', sans-serif" font-weight="700" font-style="italic" font-size="18" transform="matrix(.999 0 0 .999 -88.941 221.221)">atemiwaza</text><text x="399.946" y="74.376" font-family="'ArialMT', 'Arial', sans-serif" font-size="16" transform="matrix(.999 0 0 .999 -88.941 221.221)">V<tspan x="410.329px 413.884px" y="74.376px 74.376px">it</tspan>alpunktangrif<tspan x="509.657px 514.103px" y="74.376px 74.376px">fe</tspan></text><text x="391.642" y="57.853" font-family="'Arial-BoldItalicMT', 'Arial', sans-serif" font-weight="700" font-style="italic" font-size="24" transform="matrix(.999 0 0 .999 -96.462 63.602)">dakentaĳutsu</text><text x="410.29" y="74.376" font-family="'ArialMT', 'Arial', sans-serif" font-size="16" transform="matrix(.999 0 0 .999 -96.462 63.602)">Schlagtechniken</text><g><path d="M370.194 143.503h1.993v9.989h-1.993zM370.194 196.585h1.993v9.989h-1.993zM370.194 250.565h1.993v9.989h-1.993z"/></g></g><g><text x="418.957" y="57.853" font-family="'Arial-BoldItalicMT', 'Arial', sans-serif" font-weight="700" font-style="italic" font-size="18" transform="matrix(.999 0 0 .999 151.048 116.335)">nagewaza</text><text x="410.486" y="74.376" font-family="'ArialMT', 'Arial', sans-serif" font-size="16" transform="matrix(.999 0 0 .999 151.048 116.335)">W<tspan x="425.298px 434.196px" y="74.376px 74.376px">ur</tspan>ftechniken</text><text x="429.473" y="57.853" font-family="'Arial-BoldItalicMT', 'Arial', sans-serif" font-weight="700" font-style="italic" font-size="18" transform="matrix(.999 0 0 .999 151.048 168.487)">ha jutsu</text><text x="388.982" y="74.376" font-family="'ArialMT', 'Arial', sans-serif" font-size="16" transform="matrix(.999 0 0 .999 151.048 168.487)">Befreiungstechniken</text><text x="413.951" y="57.853" font-family="'Arial-BoldItalicMT', 'Arial', sans-serif" font-weight="700" font-style="italic" font-size="18" transform="matrix(.999 0 0 .999 151.048 221.221)">shimewaza</text><text x="403.665" y="74.376" font-family="'ArialMT', 'Arial', sans-serif" font-size="16" transform="matrix(.999 0 0 .999 151.048 221.221)">Würgetechniken</text><text x="438.974" y="57.853" font-family="'Arial-BoldItalicMT', 'Arial', sans-serif" font-weight="700" font-style="italic" font-size="18" transform="matrix(.999 0 0 .999 151.048 273.178)">torite</text><text x="364.095" y="74.376" font-family="'ArialMT', 'Arial', sans-serif" font-size="16" transform="matrix(.999 0 0 .999 151.048 273.178)">Nahkampfumstoßtechniken</text><text x="413.951" y="57.853" font-family="'Arial-BoldItalicMT', 'Arial', sans-serif" font-weight="700" font-style="italic" font-size="18" transform="matrix(.999 0 0 .999 151.048 326.007)">gyakuwaza</text><text x="406.325" y="74.376" font-family="'ArialMT', 'Arial', sans-serif" font-size="16" transform="matrix(.999 0 0 .999 151.048 326.007)">Hebeltechniken</text><text x="394.326" y="57.853" font-family="'Arial-BoldItalicMT', 'Arial', sans-serif" font-weight="700" font-style="italic" font-size="24" transform="matrix(.999 0 0 .999 164.853 63.602)">jūtaĳutsu</text><text x="396.082" y="74.376" font-family="'ArialMT', 'Arial', sans-serif" font-size="16" transform="matrix(.999 0 0 .999 164.853 63.602)">Greiftechniken</text><g><path d="M612.743 143.503h1.993v9.989h-1.993zM612.743 196.585h1.993v9.989h-1.993zM612.743 251.564h1.993v9.989h-1.993zM612.743 302.879h1.993v9.989h-1.993zM612.743 355.527h1.993v9.989h-1.993z"/></g></g><path d="M372.586 85.441h242.695l-.028 12.021h-2l.028-10.019h-240.695v10.019h-2v-10.019h-210.333v10.01h-2v-12.012h212.333v-12.747h2v12.747z"/></g></g></svg>