<svg viewBox="0 0 754 503" xmlns="http://www.w3.org/2000/svg" fill-rule="evenodd" clip-rule="evenodd"><g><path fill="none" d="M.047.016h753.815v502.129h-753.815z"/><path d="M584.258 53.48c-12.344 30.062-24.292 63.431-35.845 100.123-11.394 36.051-19.702 71.006-24.923 104.847-5.064 33.689-12.424 67.547-22.076 101.541-4.748 16.296-10.089 32.694-16.024 49.227-5.933 16.533-13.885 32.306-23.855 47.337-5.223 7.591-11.75 13.361-19.584 17.309-7.834 3.964-15.389 7.203-22.67 9.734-.79-3.964-3.401-17.241-7.832-39.864-4.115-22.454-12.819-41.348-26.112-56.7 9.021 4.116 17.486 9.498 25.399 16.145 7.437 6.799 16.774 7.98 28.011 3.543 20.572-57.24 36.081-114.885 46.525-172.934 5.223-29.421 10.761-58.792 16.617-88.129 5.856-29.337 11.868-58.724 18.04-88.146-7.279-2.362-17.724-2.041-31.333.962-17.565 3.948-38.772 10.189-63.617 18.743-23.578 8.384-43.598 17.865-60.056 28.46-.316.945 2.929 1.586 9.733 1.906 6.171.472 13.055 1.333 20.651 2.598 13.767 2.227 22.867 13.918 27.298 35.123-2.532 7.743-5.42 16.01-8.665 24.782-3.244 8.772-6.686 17.916-10.325 27.397-3.798 9.818-7.319 19.097-10.564 27.886-3.244 8.772-6.053 16.954-8.426 24.546 14.876 11.387 26.981 22.859 36.319 34.398 9.178 12.028 3.798 22.302-16.142 30.838-8.229 3.492-16.22 4.032-23.975 1.67-7.755-1.906-13.609-4.673-17.565-8.3-6.33 12.484-17.012 28.544-32.047 48.147-13.926 18.827-30.305 37.097-49.136 54.811-18.99 17.713-37.98 31.699-56.97 41.989-19.782 10.443-38.218 13.361-55.309 8.772 37.19-16.769 69.156-43.575 95.9-80.419 26.427-36.54 45.338-67.463 56.732-92.768-9.969-5.213-23.895-20.075-41.778-44.587-18.04-24.36-35.369-36.928-51.985-37.721 10.287-9.801 30.227-9.65 59.819.472 28.168 9.801 48.503 17.865 61.006 24.192 8.07-14.39 9.89-33.453 5.459-57.172-4.905-23.719-5.302-43.879-1.187-60.496-14.559 7.119-32.68 12.821-54.359 17.089-22.788 4.589-34.974-10.443-36.557-45.077 7.122 3.796 20.889 2.767 41.304-3.087 19.149-5.685 42.016-12.973 68.602-21.83 12.819-4.268 25.912-8.502 39.285-12.686 13.372-4.201 27.101-8.266 41.186-12.214 28.168-7.912 54.2-11.86 78.095-11.86 2.691-2.699 4.669-4.437 5.935-5.23 11.394 2.851 21.363 5.938 29.91 9.262 9.178 3.475 14.875 11.944 17.091 25.372z"/></g></svg>